# Blender 5.1.2
# www.blender.org
mtllib BigMesh.mtl
o Circle
v 0.000000 -0.000000 -0.924832
v -0.180426 -0.000000 -0.907061
v -0.353918 -0.000000 -0.854433
v -0.513809 -0.000000 -0.768969
v -0.653955 -0.000000 -0.653955
v -0.768969 -0.000000 -0.513809
v -0.854433 -0.000000 -0.353918
v -0.907061 -0.000000 -0.180426
v -0.924832 0.000000 0.000000
v -0.907061 0.000000 0.180426
v -0.854433 0.000000 0.353918
v -0.768969 0.000000 0.513809
v -0.653955 0.000000 0.653955
v -0.513809 0.000000 0.768969
v -0.353918 0.000000 0.854433
v -0.180426 0.000000 0.907061
v 0.000000 0.000000 0.924832
v 0.180426 0.000000 0.907061
v 0.353918 0.000000 0.854433
v 0.513809 0.000000 0.768969
v 0.653955 0.000000 0.653955
v 0.768969 0.000000 0.513809
v 0.854433 0.000000 0.353918
v 0.907061 0.000000 0.180426
v 0.924832 0.000000 0.000000
v 0.907061 -0.000000 -0.180426
v 0.854433 -0.000000 -0.353918
v 0.768969 -0.000000 -0.513809
v 0.653955 -0.000000 -0.653955
v 0.513809 -0.000000 -0.768969
v 0.353918 -0.000000 -0.854433
v 0.180426 -0.000000 -0.907061
v -0.007825 -0.000000 -0.862258
v -0.194065 -0.000000 -0.782608
v -0.371137 -0.000000 -0.671174
v -0.532237 -0.000000 -0.532237
v -0.671174 -0.000000 -0.371137
v -0.782608 -0.000000 -0.194065
v -0.862258 -0.000000 -0.007825
v 0.171310 -0.000000 -0.778085
v -0.015889 -0.000000 -0.669844
v -0.200486 -0.000000 -0.533869
v -0.375386 -0.000000 -0.375386
v -0.533869 -0.000000 -0.200486
v -0.669844 -0.000000 -0.015889
v -0.778085 0.000000 0.171310
v 0.348155 -0.000000 -0.659718
v 0.170380 -0.000000 -0.523854
v -0.012682 -0.000000 -0.366600
v -0.193998 -0.000000 -0.193998
v -0.366600 -0.000000 -0.012682
v -0.523854 0.000000 0.170380
v -0.659718 0.000000 0.348155
v 0.513809 -0.000000 -0.513809
v 0.353918 -0.000000 -0.353918
v 0.180426 -0.000000 -0.180426
v 0.000000 0.000000 0.000000
v -0.180426 0.000000 0.180426
v -0.353918 0.000000 0.353918
v -0.513809 0.000000 0.513809
v 0.659718 -0.000000 -0.348155
v 0.523854 -0.000000 -0.170380
v 0.366600 0.000000 0.012682
v 0.193998 0.000000 0.193998
v 0.012682 0.000000 0.366600
v -0.170380 0.000000 0.523854
v -0.348155 0.000000 0.659718
v 0.778085 -0.000000 -0.171310
v 0.669844 0.000000 0.015889
v 0.533869 0.000000 0.200486
v 0.375386 0.000000 0.375386
v 0.200486 0.000000 0.533869
v 0.015889 0.000000 0.669844
v -0.171310 0.000000 0.778085
v 0.862258 0.000000 0.007825
v 0.782608 0.000000 0.194065
v 0.671174 0.000000 0.371137
v 0.532237 0.000000 0.532237
v 0.371137 0.000000 0.671174
v 0.194065 0.000000 0.782608
v 0.007825 0.000000 0.862257
v -0.090213 -0.000000 -0.915946
v -0.267172 -0.000000 -0.880747
v -0.433863 -0.000000 -0.811701
v -0.583882 -0.000000 -0.711462
v -0.711462 -0.000000 -0.583882
v -0.811701 -0.000000 -0.433863
v -0.880747 -0.000000 -0.267172
v -0.915946 -0.000000 -0.090213
v -0.915946 0.000000 0.090213
v -0.880747 0.000000 0.267172
v -0.811701 0.000000 0.433863
v -0.711462 0.000000 0.583882
v -0.583882 0.000000 0.711462
v -0.433863 0.000000 0.811701
v -0.267172 0.000000 0.880747
v -0.090213 0.000000 0.915946
v 0.090213 0.000000 0.915946
v 0.267172 0.000000 0.880747
v 0.433863 0.000000 0.811701
v 0.583882 0.000000 0.711462
v 0.711462 0.000000 0.583882
v 0.811701 0.000000 0.433863
v 0.880747 0.000000 0.267172
v 0.915946 0.000000 0.090213
v 0.915946 -0.000000 -0.090213
v 0.880747 -0.000000 -0.267172
v 0.811701 -0.000000 -0.433863
v 0.711462 -0.000000 -0.583882
v 0.583882 -0.000000 -0.711462
v 0.433863 -0.000000 -0.811701
v 0.267172 -0.000000 -0.880747
v 0.090213 -0.000000 -0.915946
v -0.094125 -0.000000 -0.884659
v 0.086300 -0.000000 -0.884659
v 0.081743 -0.000000 -0.820171
v 0.262614 -0.000000 -0.816259
v 0.259732 -0.000000 -0.718901
v 0.430982 -0.000000 -0.714343
v 0.430982 -0.000000 -0.586763
v 0.583882 -0.000000 -0.583882
v 0.586763 -0.000000 -0.430982
v 0.714343 -0.000000 -0.430982
v 0.718901 -0.000000 -0.259732
v 0.816259 -0.000000 -0.262614
v 0.820171 -0.000000 -0.081743
v 0.884659 -0.000000 -0.086301
v 0.884659 0.000000 0.094125
v -0.273991 -0.000000 -0.818521
v -0.100945 -0.000000 -0.822433
v -0.104977 -0.000000 -0.726226
v 0.077710 -0.000000 -0.723964
v 0.077246 -0.000000 -0.596849
v 0.259268 -0.000000 -0.591786
v 0.262149 -0.000000 -0.438886
v 0.433863 -0.000000 -0.433863
v 0.438886 -0.000000 -0.262149
v 0.591786 -0.000000 -0.259268
v 0.596849 -0.000000 -0.077246
v 0.723964 -0.000000 -0.077710
v 0.726226 0.000000 0.104977
v 0.822433 0.000000 0.100945
v 0.818521 0.000000 0.273991
v -0.442473 -0.000000 -0.720072
v -0.282601 -0.000000 -0.726891
v -0.285812 -0.000000 -0.602522
v -0.108188 -0.000000 -0.601856
v -0.106584 -0.000000 -0.450235
v 0.078849 -0.000000 -0.445227
v 0.083872 -0.000000 -0.273513
v 0.267172 -0.000000 -0.267172
v 0.273513 -0.000000 -0.083872
v 0.445227 -0.000000 -0.078849
v 0.450234 0.000000 0.106584
v 0.601856 0.000000 0.108188
v 0.602522 0.000000 0.285812
v 0.726891 0.000000 0.282601
v 0.720072 0.000000 0.442473
v -0.593096 -0.000000 -0.593096
v -0.451687 -0.000000 -0.601706
v -0.453812 -0.000000 -0.453812
v -0.287936 -0.000000 -0.454628
v -0.284692 -0.000000 -0.284692
v -0.103340 -0.000000 -0.280299
v -0.096999 -0.000000 -0.096999
v 0.090213 -0.000000 -0.090213
v 0.096999 0.000000 0.096999
v 0.280299 0.000000 0.103340
v 0.284692 0.000000 0.284692
v 0.454628 0.000000 0.287936
v 0.453812 0.000000 0.453812
v 0.601706 0.000000 0.451687
v 0.593096 0.000000 0.593096
v -0.720072 -0.000000 -0.442473
v -0.601706 -0.000000 -0.451687
v -0.602522 -0.000000 -0.285812
v -0.454628 -0.000000 -0.287936
v -0.450235 -0.000000 -0.106584
v -0.280299 -0.000000 -0.103340
v -0.273513 0.000000 0.083872
v -0.090213 0.000000 0.090213
v -0.083872 0.000000 0.273513
v 0.103340 0.000000 0.280299
v 0.106584 0.000000 0.450235
v 0.287936 0.000000 0.454628
v 0.285811 0.000000 0.602522
v 0.451687 0.000000 0.601706
v 0.442473 0.000000 0.720072
v -0.818521 -0.000000 -0.273991
v -0.726891 -0.000000 -0.282601
v -0.726226 -0.000000 -0.104977
v -0.601856 -0.000000 -0.108188
v -0.596849 0.000000 0.077246
v -0.445227 0.000000 0.078849
v -0.438886 0.000000 0.262149
v -0.267172 0.000000 0.267172
v -0.262149 0.000000 0.438886
v -0.078849 0.000000 0.445227
v -0.077246 0.000000 0.596849
v 0.108188 0.000000 0.601856
v 0.104977 0.000000 0.726226
v 0.282601 0.000000 0.726891
v 0.273991 0.000000 0.818521
v -0.884659 -0.000000 -0.094125
v -0.822433 -0.000000 -0.100945
v -0.820171 0.000000 0.081743
v -0.723964 0.000000 0.077710
v -0.718901 0.000000 0.259732
v -0.591786 0.000000 0.259268
v -0.586763 0.000000 0.430982
v -0.433863 0.000000 0.433863
v -0.430982 0.000000 0.586763
v -0.259268 0.000000 0.591786
v -0.259732 0.000000 0.718901
v -0.077710 0.000000 0.723964
v -0.081743 0.000000 0.820171
v 0.100945 0.000000 0.822433
v 0.094125 0.000000 0.884659
v -0.884659 0.000000 0.086300
v -0.816259 0.000000 0.262614
v -0.714343 0.000000 0.430982
v -0.583882 0.000000 0.583882
v -0.430982 0.000000 0.714343
v -0.262614 0.000000 0.816259
v -0.086301 0.000000 0.884659
v 0.001956 0.000000 0.900303
v -0.174457 0.000000 0.850459
v -0.346798 0.000000 0.765301
v -0.507432 0.000000 0.649113
v -0.649113 0.000000 0.507432
v -0.765301 0.000000 0.346798
v -0.850459 0.000000 0.174457
v -0.900303 -0.000000 -0.001956
v 0.184058 0.000000 0.851590
v 0.011617 0.000000 0.773199
v -0.168489 0.000000 0.657875
v -0.346565 0.000000 0.512824
v -0.512824 0.000000 0.346565
v -0.657875 0.000000 0.168489
v -0.773199 -0.000000 -0.011617
v -0.851590 -0.000000 -0.184058
v 0.358232 0.000000 0.769296
v 0.195394 0.000000 0.664374
v 0.014669 0.000000 0.523542
v -0.173010 0.000000 0.356199
v -0.356199 0.000000 0.173010
v -0.523542 -0.000000 -0.014669
v -0.664374 -0.000000 -0.195394
v -0.769296 -0.000000 -0.358232
v 0.517784 0.000000 0.656584
v 0.369812 0.000000 0.528167
v 0.195638 0.000000 0.367463
v 0.006564 0.000000 0.185256
v -0.185256 -0.000000 -0.006564
v -0.367463 -0.000000 -0.195638
v -0.528167 -0.000000 -0.369812
v -0.656584 -0.000000 -0.517784
v 0.656584 0.000000 0.517784
v 0.528167 0.000000 0.369812
v 0.367463 0.000000 0.195638
v 0.185256 0.000000 0.006564
v -0.006564 -0.000000 -0.185256
v -0.195638 -0.000000 -0.367463
v -0.369812 -0.000000 -0.528167
v -0.517784 -0.000000 -0.656584
v 0.769296 0.000000 0.358232
v 0.664374 0.000000 0.195394
v 0.523542 0.000000 0.014669
v 0.356199 -0.000000 -0.173010
v 0.173010 -0.000000 -0.356199
v -0.014669 -0.000000 -0.523542
v -0.195394 -0.000000 -0.664374
v -0.358232 -0.000000 -0.769296
v 0.851590 0.000000 0.184058
v 0.773199 0.000000 0.011617
v 0.657875 -0.000000 -0.168489
v 0.512825 -0.000000 -0.346565
v 0.346565 -0.000000 -0.512825
v 0.168489 -0.000000 -0.657875
v -0.011617 -0.000000 -0.773199
v -0.184058 -0.000000 -0.851590
v 0.900303 0.000000 0.001956
v 0.850459 -0.000000 -0.174457
v 0.765301 -0.000000 -0.346798
v 0.649113 -0.000000 -0.507432
v 0.507432 -0.000000 -0.649113
v 0.346798 -0.000000 -0.765301
v 0.174457 -0.000000 -0.850459
v -0.001956 -0.000000 -0.900303
v -0.045106 -0.000000 -0.920389
v -0.223799 -0.000000 -0.893904
v -0.393891 -0.000000 -0.833067
v -0.548845 -0.000000 -0.740216
v -0.682708 -0.000000 -0.618918
v -0.790335 -0.000000 -0.473836
v -0.867590 -0.000000 -0.310545
v -0.911504 -0.000000 -0.135319
v -0.920389 0.000000 0.045106
v -0.893904 0.000000 0.223799
v -0.833067 0.000000 0.393891
v -0.740216 0.000000 0.548845
v -0.618918 0.000000 0.682708
v -0.473836 0.000000 0.790335
v -0.310545 0.000000 0.867590
v -0.135319 0.000000 0.911504
v 0.045106 0.000000 0.920389
v 0.223799 0.000000 0.893904
v 0.393891 0.000000 0.833067
v 0.548845 0.000000 0.740216
v 0.682708 0.000000 0.618918
v 0.790335 0.000000 0.473836
v 0.867590 0.000000 0.310545
v 0.911504 0.000000 0.135319
v 0.920389 -0.000000 -0.045106
v 0.893904 -0.000000 -0.223799
v 0.833067 -0.000000 -0.393891
v 0.740216 -0.000000 -0.548845
v 0.618918 -0.000000 -0.682708
v 0.473836 -0.000000 -0.790335
v 0.310545 -0.000000 -0.867590
v 0.135319 -0.000000 -0.911504
v -0.050975 -0.000000 -0.873459
v 0.133363 -0.000000 -0.895860
v 0.126526 -0.000000 -0.799128
v 0.308266 -0.000000 -0.835346
v 0.303944 -0.000000 -0.689309
v 0.472395 -0.000000 -0.741656
v 0.472395 -0.000000 -0.550286
v 0.618918 -0.000000 -0.618918
v 0.623240 -0.000000 -0.389568
v 0.741656 -0.000000 -0.472395
v 0.748493 -0.000000 -0.215521
v 0.835346 -0.000000 -0.308266
v 0.841214 -0.000000 -0.036959
v 0.895860 -0.000000 -0.133363
v 0.895860 0.000000 0.137275
v -0.234028 -0.000000 -0.800564
v -0.054385 -0.000000 -0.842345
v -0.060433 -0.000000 -0.698035
v 0.124510 -0.000000 -0.751025
v 0.123813 -0.000000 -0.560351
v 0.303711 -0.000000 -0.625752
v 0.308033 -0.000000 -0.396402
v 0.473836 -0.000000 -0.473836
v 0.481370 -0.000000 -0.216265
v 0.625752 -0.000000 -0.303711
v 0.633346 -0.000000 -0.030678
v 0.751025 -0.000000 -0.124510
v 0.754417 0.000000 0.149521
v 0.842345 0.000000 0.054385
v 0.836477 0.000000 0.313954
v -0.406805 -0.000000 -0.695623
v -0.238333 -0.000000 -0.754750
v -0.243149 -0.000000 -0.568195
v -0.062038 -0.000000 -0.635850
v -0.059633 -0.000000 -0.408417
v 0.124615 -0.000000 -0.484540
v 0.132149 -0.000000 -0.226969
v 0.310545 -0.000000 -0.310545
v 0.320056 -0.000000 -0.035595
v 0.484540 -0.000000 -0.124615
v 0.492052 0.000000 0.153535
v 0.635850 0.000000 0.062038
v 0.636848 0.000000 0.328474
v 0.754750 0.000000 0.238333
v 0.744521 0.000000 0.478141
v -0.562667 -0.000000 -0.562667
v -0.411412 -0.000000 -0.636440
v -0.414599 -0.000000 -0.414599
v -0.244211 -0.000000 -0.494248
v -0.239345 -0.000000 -0.239345
v -0.058011 -0.000000 -0.323449
v -0.048500 -0.000000 -0.048500
v 0.135319 -0.000000 -0.135319
v 0.145499 0.000000 0.145499
v 0.323449 0.000000 0.058011
v 0.330039 0.000000 0.330039
v 0.494248 0.000000 0.244211
v 0.493024 0.000000 0.493024
v 0.636440 0.000000 0.411412
v 0.623525 0.000000 0.623525
v -0.695623 -0.000000 -0.406805
v -0.566971 -0.000000 -0.491962
v -0.568195 -0.000000 -0.243149
v -0.415007 -0.000000 -0.331661
v -0.408417 -0.000000 -0.059633
v -0.237149 -0.000000 -0.148669
v -0.226969 0.000000 0.132149
v -0.045106 0.000000 0.045106
v -0.035595 0.000000 0.320056
v 0.148669 0.000000 0.237149
v 0.153535 0.000000 0.492052
v 0.331661 0.000000 0.415007
v 0.328474 0.000000 0.636848
v 0.491962 0.000000 0.566971
v 0.478141 0.000000 0.744521
v -0.800564 -0.000000 -0.234028
v -0.699033 -0.000000 -0.326869
v -0.698035 -0.000000 -0.060433
v -0.567863 -0.000000 -0.154337
v -0.560351 0.000000 0.123813
v -0.405913 0.000000 0.033083
v -0.396402 0.000000 0.308033
v -0.223799 0.000000 0.223799
v -0.216265 0.000000 0.481370
v -0.033084 0.000000 0.405913
v -0.030678 0.000000 0.633346
v 0.154337 0.000000 0.567863
v 0.149521 0.000000 0.754417
v 0.326869 0.000000 0.699032
v 0.313954 0.000000 0.836477
v -0.873458 -0.000000 -0.050975
v -0.802521 -0.000000 -0.147505
v -0.799128 0.000000 0.126526
v -0.696904 0.000000 0.030911
v -0.689309 0.000000 0.303944
v -0.557820 0.000000 0.214824
v -0.550286 0.000000 0.472395
v -0.393890 0.000000 0.393890
v -0.389568 0.000000 0.623240
v -0.214824 0.000000 0.557820
v -0.215521 0.000000 0.748493
v -0.030911 0.000000 0.696904
v -0.036959 0.000000 0.841214
v 0.147505 0.000000 0.802521
v 0.137275 0.000000 0.895860
v -0.873458 0.000000 0.039238
v -0.797172 0.000000 0.216962
v -0.687030 0.000000 0.389568
v -0.548845 0.000000 0.548845
v -0.389568 0.000000 0.687030
v -0.216962 0.000000 0.797172
v -0.039238 0.000000 0.873458
v -0.135319 -0.000000 -0.911504
v -0.310545 -0.000000 -0.867590
v -0.473836 -0.000000 -0.790335
v -0.618918 -0.000000 -0.682708
v -0.740216 -0.000000 -0.548845
v -0.833067 -0.000000 -0.393891
v -0.893904 -0.000000 -0.223799
v -0.920389 -0.000000 -0.045106
v -0.911504 0.000000 0.135319
v -0.867590 0.000000 0.310545
v -0.790335 0.000000 0.473836
v -0.682708 0.000000 0.618918
v -0.548845 0.000000 0.740216
v -0.393891 0.000000 0.833067
v -0.223799 0.000000 0.893904
v -0.045106 0.000000 0.920389
v 0.135319 0.000000 0.911504
v 0.310545 0.000000 0.867590
v 0.473836 0.000000 0.790335
v 0.618918 0.000000 0.682708
v 0.740216 0.000000 0.548845
v 0.833067 0.000000 0.393891
v 0.893904 0.000000 0.223799
v 0.920389 0.000000 0.045106
v 0.911504 -0.000000 -0.135319
v 0.867590 -0.000000 -0.310545
v 0.790335 -0.000000 -0.473836
v 0.682708 -0.000000 -0.618918
v 0.548845 -0.000000 -0.740216
v 0.393891 -0.000000 -0.833067
v 0.223799 -0.000000 -0.893904
v 0.045106 -0.000000 -0.920389
v -0.137275 -0.000000 -0.895860
v 0.039238 -0.000000 -0.873459
v 0.036959 -0.000000 -0.841215
v 0.216962 -0.000000 -0.797172
v 0.215521 -0.000000 -0.748493
v 0.389568 -0.000000 -0.687031
v 0.389568 -0.000000 -0.623240
v 0.548845 -0.000000 -0.548845
v 0.550286 -0.000000 -0.472395
v 0.687030 -0.000000 -0.389568
v 0.689309 -0.000000 -0.303944
v 0.797172 -0.000000 -0.216962
v 0.799128 -0.000000 -0.126526
v 0.873459 -0.000000 -0.039238
v 0.873459 0.000000 0.050975
v -0.313954 -0.000000 -0.836477
v -0.147505 -0.000000 -0.802521
v -0.149521 -0.000000 -0.754417
v 0.030911 -0.000000 -0.696904
v 0.030678 -0.000000 -0.633346
v 0.214824 -0.000000 -0.557820
v 0.216265 -0.000000 -0.481370
v 0.393890 -0.000000 -0.393890
v 0.396402 -0.000000 -0.308033
v 0.557820 -0.000000 -0.214824
v 0.560351 -0.000000 -0.123813
v 0.696904 -0.000000 -0.030911
v 0.698035 0.000000 0.060433
v 0.802521 0.000000 0.147505
v 0.800564 0.000000 0.234028
v -0.478141 -0.000000 -0.744521
v -0.326869 -0.000000 -0.699033
v -0.328474 -0.000000 -0.636848
v -0.154337 -0.000000 -0.567863
v -0.153535 -0.000000 -0.492052
v 0.033083 -0.000000 -0.405913
v 0.035595 -0.000000 -0.320056
v 0.223799 -0.000000 -0.223799
v 0.226969 -0.000000 -0.132149
v 0.405913 -0.000000 -0.033083
v 0.408417 0.000000 0.059633
v 0.567863 0.000000 0.154337
v 0.568195 0.000000 0.243149
v 0.699032 0.000000 0.326869
v 0.695623 0.000000 0.406805
v -0.623525 -0.000000 -0.623525
v -0.491962 -0.000000 -0.566971
v -0.493024 -0.000000 -0.493024
v -0.331661 -0.000000 -0.415007
v -0.330039 -0.000000 -0.330039
v -0.148669 -0.000000 -0.237149
v -0.145499 -0.000000 -0.145499
v 0.045106 -0.000000 -0.045106
v 0.048500 0.000000 0.048500
v 0.237149 0.000000 0.148669
v 0.239345 0.000000 0.239345
v 0.415007 0.000000 0.331661
v 0.414599 0.000000 0.414599
v 0.566971 0.000000 0.491962
v 0.562667 0.000000 0.562667
v -0.744521 -0.000000 -0.478141
v -0.636440 -0.000000 -0.411412
v -0.636848 -0.000000 -0.328474
v -0.494249 -0.000000 -0.244211
v -0.492052 -0.000000 -0.153535
v -0.323449 -0.000000 -0.058011
v -0.320056 0.000000 0.035595
v -0.135319 0.000000 0.135319
v -0.132149 0.000000 0.226969
v 0.058011 0.000000 0.323449
v 0.059633 0.000000 0.408417
v 0.244211 0.000000 0.494248
v 0.243149 0.000000 0.568195
v 0.411412 0.000000 0.636440
v 0.406805 0.000000 0.695623
v -0.836477 -0.000000 -0.313954
v -0.754750 -0.000000 -0.238333
v -0.754417 -0.000000 -0.149521
v -0.635850 -0.000000 -0.062038
v -0.633346 0.000000 0.030678
v -0.484540 0.000000 0.124615
v -0.481370 0.000000 0.216265
v -0.310545 0.000000 0.310545
v -0.308033 0.000000 0.396402
v -0.124615 0.000000 0.484540
v -0.123813 0.000000 0.560351
v 0.062038 0.000000 0.635850
v 0.060433 0.000000 0.698035
v 0.238333 0.000000 0.754750
v 0.234028 0.000000 0.800564
v -0.895860 -0.000000 -0.137275
v -0.842345 -0.000000 -0.054385
v -0.841214 0.000000 0.036959
v -0.751025 0.000000 0.124510
v -0.748493 0.000000 0.215521
v -0.625752 0.000000 0.303711
v -0.623240 0.000000 0.389568
v -0.473836 0.000000 0.473836
v -0.472395 0.000000 0.550286
v -0.303711 0.000000 0.625752
v -0.303944 0.000000 0.689309
v -0.124510 0.000000 0.751025
v -0.126526 0.000000 0.799128
v 0.054385 0.000000 0.842345
v 0.050975 0.000000 0.873458
v -0.895860 0.000000 0.133363
v -0.835346 0.000000 0.308266
v -0.741656 0.000000 0.472395
v -0.618918 0.000000 0.618918
v -0.472395 0.000000 0.741656
v -0.308266 0.000000 0.835346
v -0.133363 0.000000 0.895860
v 0.048041 0.000000 0.892481
v -0.044128 0.000000 0.908125
v -0.042172 0.000000 0.892481
v 0.046085 0.000000 0.908125
v -0.128100 0.000000 0.835315
v -0.220814 0.000000 0.865603
v -0.218536 0.000000 0.833359
v -0.130379 0.000000 0.867559
v -0.303265 0.000000 0.742101
v -0.390331 0.000000 0.788501
v -0.388890 0.000000 0.739822
v -0.304706 0.000000 0.790780
v -0.469207 0.000000 0.617938
v -0.545657 0.000000 0.680287
v -0.545657 0.000000 0.616497
v -0.469207 0.000000 0.681728
v -0.617938 0.000000 0.469207
v -0.680287 0.000000 0.545657
v -0.681728 0.000000 0.469207
v -0.616497 0.000000 0.545657
v -0.742101 0.000000 0.303265
v -0.788501 0.000000 0.390331
v -0.790780 0.000000 0.304706
v -0.739822 0.000000 0.388890
v -0.835315 0.000000 0.128100
v -0.865603 0.000000 0.220814
v -0.867559 0.000000 0.130379
v -0.833359 0.000000 0.218536
v -0.892481 -0.000000 -0.048041
v -0.908125 0.000000 0.044128
v -0.908125 -0.000000 -0.046085
v -0.892481 0.000000 0.042172
v 0.229025 0.000000 0.835055
v 0.139092 0.000000 0.868125
v 0.142501 0.000000 0.837011
v 0.225615 0.000000 0.866168
v 0.058297 0.000000 0.749712
v -0.035063 0.000000 0.796685
v -0.033047 0.000000 0.748581
v 0.056281 0.000000 0.797816
v -0.122867 0.000000 0.627362
v -0.214111 0.000000 0.688388
v -0.213878 0.000000 0.624830
v -0.123100 0.000000 0.690920
v -0.304357 0.000000 0.475855
v -0.388774 0.000000 0.549794
v -0.390214 0.000000 0.473344
v -0.302917 0.000000 0.552305
v -0.475855 0.000000 0.304357
v -0.549794 0.000000 0.388774
v -0.552305 0.000000 0.302917
v -0.473344 0.000000 0.390214
v -0.627362 0.000000 0.122867
v -0.688388 0.000000 0.214111
v -0.690920 0.000000 0.123100
v -0.624830 0.000000 0.213878
v -0.749712 -0.000000 -0.058297
v -0.796685 0.000000 0.035063
v -0.797816 -0.000000 -0.056281
v -0.748581 0.000000 0.033047
v -0.835055 -0.000000 -0.229025
v -0.868125 -0.000000 -0.139092
v -0.866168 -0.000000 -0.225615
v -0.837011 -0.000000 -0.142501
v 0.400353 0.000000 0.744684
v 0.316112 0.000000 0.793908
v 0.320416 0.000000 0.748094
v 0.396048 0.000000 0.790499
v 0.240603 0.000000 0.633448
v 0.150186 0.000000 0.695300
v 0.151791 0.000000 0.633115
v 0.238998 0.000000 0.695632
v 0.060627 0.000000 0.486888
v -0.031288 0.000000 0.560195
v -0.032090 0.000000 0.484384
v 0.061428 0.000000 0.562699
v -0.128441 0.000000 0.314856
v -0.217580 0.000000 0.397543
v -0.220091 0.000000 0.311685
v -0.125930 0.000000 0.400713
v -0.314856 0.000000 0.128441
v -0.397543 0.000000 0.217580
v -0.400713 0.000000 0.125930
v -0.311686 0.000000 0.220091
v -0.486888 -0.000000 -0.060627
v -0.560195 0.000000 0.031288
v -0.562699 -0.000000 -0.061428
v -0.484384 0.000000 0.032090
v -0.633448 -0.000000 -0.240603
v -0.695300 -0.000000 -0.150186
v -0.695632 -0.000000 -0.238998
v -0.633115 -0.000000 -0.151791
v -0.744684 -0.000000 -0.400353
v -0.793908 -0.000000 -0.316112
v -0.790499 -0.000000 -0.396048
v -0.748094 -0.000000 -0.320416
v 0.555440 0.000000 0.624840
v 0.480129 0.000000 0.688328
v 0.484736 0.000000 0.629145
v 0.550833 0.000000 0.684023
v 0.411812 0.000000 0.490989
v 0.327812 0.000000 0.565344
v 0.328874 0.000000 0.491397
v 0.410749 0.000000 0.564936
v 0.240165 0.000000 0.326078
v 0.151111 0.000000 0.408849
v 0.149489 0.000000 0.323881
v 0.241787 0.000000 0.411046
v 0.051781 0.000000 0.141127
v -0.038654 0.000000 0.229384
v -0.041825 0.000000 0.137734
v 0.054952 0.000000 0.232777
v -0.141128 -0.000000 -0.051781
v -0.229384 0.000000 0.038654
v -0.232777 -0.000000 -0.054952
v -0.137734 0.000000 0.041825
v -0.326078 -0.000000 -0.240165
v -0.408849 -0.000000 -0.151111
v -0.411046 -0.000000 -0.241787
v -0.323881 -0.000000 -0.149489
v -0.490989 -0.000000 -0.411812
v -0.565344 -0.000000 -0.327812
v -0.564936 -0.000000 -0.410749
v -0.491397 -0.000000 -0.328874
v -0.624840 -0.000000 -0.555440
v -0.688328 -0.000000 -0.480129
v -0.684023 -0.000000 -0.550833
v -0.629145 -0.000000 -0.484736
v 0.688328 0.000000 0.480129
v 0.624840 0.000000 0.555440
v 0.629145 0.000000 0.484736
v 0.684023 0.000000 0.550833
v 0.565344 0.000000 0.327812
v 0.490989 0.000000 0.411812
v 0.491397 0.000000 0.328874
v 0.564936 0.000000 0.410749
v 0.408849 0.000000 0.151111
v 0.326078 0.000000 0.240165
v 0.323881 0.000000 0.149489
v 0.411046 0.000000 0.241787
v 0.229384 -0.000000 -0.038654
v 0.141128 0.000000 0.051781
v 0.137734 -0.000000 -0.041825
v 0.232777 0.000000 0.054952
v 0.038654 -0.000000 -0.229384
v -0.051781 -0.000000 -0.141128
v -0.054952 -0.000000 -0.232778
v 0.041825 -0.000000 -0.137734
v -0.151111 -0.000000 -0.408849
v -0.240165 -0.000000 -0.326078
v -0.241787 -0.000000 -0.411046
v -0.149489 -0.000000 -0.323881
v -0.327812 -0.000000 -0.565344
v -0.411812 -0.000000 -0.490989
v -0.410749 -0.000000 -0.564936
v -0.328874 -0.000000 -0.491397
v -0.480129 -0.000000 -0.688328
v -0.555440 -0.000000 -0.624840
v -0.550833 -0.000000 -0.684023
v -0.484736 -0.000000 -0.629145
v 0.793908 0.000000 0.316112
v 0.744684 0.000000 0.400353
v 0.748094 0.000000 0.320416
v 0.790499 0.000000 0.396048
v 0.695300 0.000000 0.150186
v 0.633448 0.000000 0.240603
v 0.633115 0.000000 0.151791
v 0.695632 0.000000 0.238998
v 0.560195 -0.000000 -0.031288
v 0.486888 0.000000 0.060627
v 0.484384 -0.000000 -0.032090
v 0.562699 0.000000 0.061428
v 0.397543 -0.000000 -0.217580
v 0.314856 -0.000000 -0.128441
v 0.311685 -0.000000 -0.220091
v 0.400713 -0.000000 -0.125930
v 0.217580 -0.000000 -0.397543
v 0.128441 -0.000000 -0.314856
v 0.125930 -0.000000 -0.400713
v 0.220091 -0.000000 -0.311685
v 0.031288 -0.000000 -0.560195
v -0.060627 -0.000000 -0.486888
v -0.061428 -0.000000 -0.562699
v 0.032090 -0.000000 -0.484384
v -0.150186 -0.000000 -0.695300
v -0.240603 -0.000000 -0.633448
v -0.238998 -0.000000 -0.695632
v -0.151791 -0.000000 -0.633115
v -0.316112 -0.000000 -0.793908
v -0.400353 -0.000000 -0.744684
v -0.396048 -0.000000 -0.790499
v -0.320416 -0.000000 -0.748094
v 0.868125 0.000000 0.139092
v 0.835055 0.000000 0.229025
v 0.837011 0.000000 0.142501
v 0.866168 0.000000 0.225615
v 0.796685 -0.000000 -0.035063
v 0.749712 0.000000 0.058297
v 0.748582 -0.000000 -0.033047
v 0.797816 0.000000 0.056281
v 0.688388 -0.000000 -0.214111
v 0.627362 -0.000000 -0.122867
v 0.624830 -0.000000 -0.213878
v 0.690920 -0.000000 -0.123100
v 0.549794 -0.000000 -0.388774
v 0.475855 -0.000000 -0.304357
v 0.473344 -0.000000 -0.390214
v 0.552305 -0.000000 -0.302917
v 0.388774 -0.000000 -0.549794
v 0.304357 -0.000000 -0.475855
v 0.302917 -0.000000 -0.552305
v 0.390214 -0.000000 -0.473344
v 0.214111 -0.000000 -0.688388
v 0.122867 -0.000000 -0.627362
v 0.123100 -0.000000 -0.690920
v 0.213878 -0.000000 -0.624830
v 0.035063 -0.000000 -0.796685
v -0.058297 -0.000000 -0.749712
v -0.056281 -0.000000 -0.797816
v 0.033047 -0.000000 -0.748582
v -0.139092 -0.000000 -0.868125
v -0.229025 -0.000000 -0.835055
v -0.225615 -0.000000 -0.866168
v -0.142501 -0.000000 -0.837011
v 0.908125 -0.000000 -0.044128
v 0.892481 0.000000 0.048041
v 0.892481 -0.000000 -0.042172
v 0.908125 0.000000 0.046085
v 0.865603 -0.000000 -0.220814
v 0.835315 -0.000000 -0.128100
v 0.833359 -0.000000 -0.218536
v 0.867559 -0.000000 -0.130379
v 0.788501 -0.000000 -0.390331
v 0.742101 -0.000000 -0.303265
v 0.739822 -0.000000 -0.388890
v 0.790780 -0.000000 -0.304706
v 0.680287 -0.000000 -0.545657
v 0.617938 -0.000000 -0.469207
v 0.616497 -0.000000 -0.545657
v 0.681728 -0.000000 -0.469207
v 0.545657 -0.000000 -0.680287
v 0.469207 -0.000000 -0.617938
v 0.469207 -0.000000 -0.681728
v 0.545657 -0.000000 -0.616497
v 0.390331 -0.000000 -0.788501
v 0.303265 -0.000000 -0.742101
v 0.304706 -0.000000 -0.790780
v 0.388890 -0.000000 -0.739822
v 0.220814 -0.000000 -0.865603
v 0.128100 -0.000000 -0.835315
v 0.130379 -0.000000 -0.867559
v 0.218536 -0.000000 -0.833359
v 0.044128 -0.000000 -0.908125
v -0.048041 -0.000000 -0.892481
v -0.046085 -0.000000 -0.908125
v 0.042172 -0.000000 -0.892481
v -0.004401 -0.000000 -0.882970
v -0.091680 -0.000000 -0.901992
v -0.000489 -0.000000 -0.914257
v 0.172531 -0.000000 -0.816244
v 0.083669 -0.000000 -0.854387
v 0.177089 -0.000000 -0.880732
v 0.346417 -0.000000 -0.714566
v 0.260114 -0.000000 -0.769637
v 0.349298 -0.000000 -0.811924
v 0.509026 -0.000000 -0.583392
v 0.429388 -0.000000 -0.652484
v 0.509026 -0.000000 -0.710972
v 0.652484 -0.000000 -0.429388
v 0.583392 -0.000000 -0.509026
v 0.649603 -0.000000 -0.582288
v 0.769637 -0.000000 -0.260114
v 0.714566 -0.000000 -0.346417
v 0.765079 -0.000000 -0.431363
v 0.854387 -0.000000 -0.083669
v 0.816244 -0.000000 -0.172531
v 0.850475 -0.000000 -0.264540
v 0.901992 0.000000 0.091680
v 0.882970 0.000000 0.004401
v 0.901992 -0.000000 -0.088746
v -0.188265 -0.000000 -0.818788
v -0.269785 -0.000000 -0.851323
v -0.181445 -0.000000 -0.881014
v -0.013693 -0.000000 -0.723308
v -0.102901 -0.000000 -0.776116
v -0.009661 -0.000000 -0.819515
v 0.168846 -0.000000 -0.592591
v 0.076889 -0.000000 -0.662133
v 0.169310 -0.000000 -0.719706
v 0.349124 -0.000000 -0.434873
v 0.259591 -0.000000 -0.516838
v 0.346242 -0.000000 -0.587773
v 0.516838 -0.000000 -0.259591
v 0.434873 -0.000000 -0.349124
v 0.511815 -0.000000 -0.431305
v 0.662133 -0.000000 -0.076889
v 0.592591 -0.000000 -0.168846
v 0.657070 -0.000000 -0.258911
v 0.776116 0.000000 0.102901
v 0.723308 0.000000 0.013693
v 0.773855 -0.000000 -0.079787
v 0.851323 0.000000 0.269785
v 0.818788 0.000000 0.188265
v 0.855235 0.000000 0.096738
v -0.363611 -0.000000 -0.721858
v -0.437094 -0.000000 -0.767510
v -0.355001 -0.000000 -0.813488
v -0.197470 -0.000000 -0.600655
v -0.283736 -0.000000 -0.666240
v -0.194259 -0.000000 -0.725025
v -0.013772 -0.000000 -0.446401
v -0.107482 -0.000000 -0.527375
v -0.015375 -0.000000 -0.598023
v 0.176120 -0.000000 -0.269327
v 0.080762 -0.000000 -0.360385
v 0.171097 -0.000000 -0.441041
v 0.360385 -0.000000 -0.080762
v 0.269327 -0.000000 -0.176120
v 0.354044 -0.000000 -0.264062
v 0.527375 0.000000 0.107482
v 0.446401 0.000000 0.013772
v 0.522368 -0.000000 -0.077952
v 0.666240 0.000000 0.283736
v 0.600655 0.000000 0.197470
v 0.665575 0.000000 0.106112
v 0.767510 0.000000 0.437094
v 0.721858 0.000000 0.363611
v 0.774329 0.000000 0.277222
v -0.523701 -0.000000 -0.595906
v -0.587179 -0.000000 -0.653774
v -0.514487 -0.000000 -0.714272
v -0.371736 -0.000000 -0.452998
v -0.451887 -0.000000 -0.528980
v -0.369612 -0.000000 -0.600892
v -0.194417 -0.000000 -0.281613
v -0.285913 -0.000000 -0.370542
v -0.197661 -0.000000 -0.451549
v -0.003337 -0.000000 -0.093117
v -0.100225 -0.000000 -0.189138
v -0.009679 -0.000000 -0.276417
v 0.189138 0.000000 0.100225
v 0.093117 0.000000 0.003337
v 0.182352 -0.000000 -0.086987
v 0.370542 0.000000 0.285913
v 0.281613 0.000000 0.194417
v 0.366149 0.000000 0.104561
v 0.528980 0.000000 0.451887
v 0.452998 0.000000 0.371736
v 0.529796 0.000000 0.286011
v 0.653774 0.000000 0.587179
v 0.595906 0.000000 0.523701
v 0.662384 0.000000 0.445770
v -0.662384 -0.000000 -0.445770
v -0.714272 -0.000000 -0.514487
v -0.653774 -0.000000 -0.587179
v -0.529796 -0.000000 -0.286011
v -0.600892 -0.000000 -0.369612
v -0.528980 -0.000000 -0.451887
v -0.366149 -0.000000 -0.104561
v -0.451549 -0.000000 -0.197661
v -0.370542 -0.000000 -0.285913
v -0.182352 0.000000 0.086987
v -0.276417 -0.000000 -0.009679
v -0.189138 -0.000000 -0.100225
v 0.009679 0.000000 0.276417
v -0.086987 0.000000 0.182352
v 0.003337 0.000000 0.093117
v 0.197661 0.000000 0.451549
v 0.104561 0.000000 0.366149
v 0.194417 0.000000 0.281613
v 0.369612 0.000000 0.600892
v 0.286011 0.000000 0.529796
v 0.371737 0.000000 0.452998
v 0.514487 0.000000 0.714272
v 0.445770 0.000000 0.662384
v 0.523701 0.000000 0.595906
v -0.774329 -0.000000 -0.277222
v -0.813488 -0.000000 -0.355001
v -0.767510 -0.000000 -0.437094
v -0.665575 -0.000000 -0.106112
v -0.725025 -0.000000 -0.194259
v -0.666240 -0.000000 -0.283736
v -0.522368 0.000000 0.077951
v -0.598023 -0.000000 -0.015375
v -0.527375 -0.000000 -0.107482
v -0.354044 0.000000 0.264062
v -0.441042 0.000000 0.171097
v -0.360385 0.000000 0.080762
v -0.171097 0.000000 0.441041
v -0.264062 0.000000 0.354044
v -0.176120 0.000000 0.269327
v 0.015375 0.000000 0.598023
v -0.077952 0.000000 0.522368
v 0.013772 0.000000 0.446401
v 0.194259 0.000000 0.725025
v 0.106112 0.000000 0.665575
v 0.197470 0.000000 0.600655
v 0.355001 0.000000 0.813488
v 0.277222 0.000000 0.774329
v 0.363611 0.000000 0.721858
v -0.855235 -0.000000 -0.096738
v -0.881014 -0.000000 -0.181445
v -0.851323 -0.000000 -0.269785
v -0.773855 0.000000 0.079786
v -0.819515 -0.000000 -0.009661
v -0.776116 -0.000000 -0.102901
v -0.657070 0.000000 0.258911
v -0.719706 0.000000 0.169310
v -0.662133 0.000000 0.076889
v -0.511815 0.000000 0.431305
v -0.587773 0.000000 0.346242
v -0.516837 0.000000 0.259591
v -0.346242 0.000000 0.587773
v -0.431305 0.000000 0.511815
v -0.349124 0.000000 0.434873
v -0.169310 0.000000 0.719706
v -0.258911 0.000000 0.657070
v -0.168846 0.000000 0.592591
v 0.009661 0.000000 0.819515
v -0.079787 0.000000 0.773855
v 0.013693 0.000000 0.723308
v 0.181445 0.000000 0.881014
v 0.096738 0.000000 0.855235
v 0.188265 0.000000 0.818788
v -0.901992 0.000000 0.088746
v -0.914257 -0.000000 -0.000489
v -0.901992 -0.000000 -0.091680
v -0.850474 0.000000 0.264540
v -0.880732 0.000000 0.177089
v -0.854387 0.000000 0.083669
v -0.765079 0.000000 0.431363
v -0.811924 0.000000 0.349298
v -0.769637 0.000000 0.260114
v -0.649603 0.000000 0.582288
v -0.710972 0.000000 0.509026
v -0.652484 0.000000 0.429388
v -0.509026 0.000000 0.710972
v -0.582288 0.000000 0.649603
v -0.509026 0.000000 0.583392
v -0.349298 0.000000 0.811924
v -0.431363 0.000000 0.765079
v -0.346417 0.000000 0.714566
v -0.177089 0.000000 0.880732
v -0.264540 0.000000 0.850474
v -0.172531 0.000000 0.816243
v 0.000489 0.000000 0.914257
v -0.088746 0.000000 0.901992
v 0.004401 0.000000 0.882970
v 0.091680 0.000000 0.901992
v -0.083669 0.000000 0.854387
v -0.260114 0.000000 0.769637
v -0.429388 0.000000 0.652484
v -0.583392 0.000000 0.509026
v -0.714566 0.000000 0.346417
v -0.816244 0.000000 0.172531
v -0.882970 -0.000000 -0.004401
v 0.269785 0.000000 0.851323
v 0.102901 0.000000 0.776116
v -0.076889 0.000000 0.662133
v -0.259591 0.000000 0.516837
v -0.434873 0.000000 0.349124
v -0.592591 0.000000 0.168846
v -0.723308 -0.000000 -0.013693
v -0.818788 -0.000000 -0.188265
v 0.437094 0.000000 0.767510
v 0.283736 0.000000 0.666240
v 0.107482 0.000000 0.527375
v -0.080762 0.000000 0.360385
v -0.269327 0.000000 0.176120
v -0.446401 -0.000000 -0.013772
v -0.600655 -0.000000 -0.197470
v -0.721858 -0.000000 -0.363611
v 0.587179 0.000000 0.653774
v 0.451887 0.000000 0.528980
v 0.285913 0.000000 0.370542
v 0.100225 0.000000 0.189138
v -0.093117 -0.000000 -0.003338
v -0.281613 -0.000000 -0.194417
v -0.452998 -0.000000 -0.371737
v -0.595906 -0.000000 -0.523701
v 0.714272 0.000000 0.514487
v 0.600892 0.000000 0.369612
v 0.451549 0.000000 0.197661
v 0.276417 0.000000 0.009679
v 0.086987 -0.000000 -0.182352
v -0.104561 -0.000000 -0.366149
v -0.286011 -0.000000 -0.529796
v -0.445770 -0.000000 -0.662384
v 0.813488 0.000000 0.355001
v 0.725025 0.000000 0.194259
v 0.598023 0.000000 0.015375
v 0.441041 -0.000000 -0.171097
v 0.264062 -0.000000 -0.354044
v 0.077951 -0.000000 -0.522368
v -0.106112 -0.000000 -0.665575
v -0.277222 -0.000000 -0.774329
v 0.881014 0.000000 0.181445
v 0.819515 0.000000 0.009661
v 0.719706 -0.000000 -0.169311
v 0.587773 -0.000000 -0.346242
v 0.431305 -0.000000 -0.511815
v 0.258911 -0.000000 -0.657070
v 0.079787 -0.000000 -0.773855
v -0.096738 -0.000000 -0.855235
v 0.914257 0.000000 0.000489
v 0.880732 -0.000000 -0.177089
v 0.811924 -0.000000 -0.349298
v 0.710972 -0.000000 -0.509026
v 0.582288 -0.000000 -0.649603
v 0.431363 -0.000000 -0.765079
v 0.264540 -0.000000 -0.850475
v 0.088746 -0.000000 -0.901992
vn -0.0000 1.0000 -0.0000
vt 0.877038 0.816514
vt 0.892029 0.797185
vt 0.914554 0.783660
vt 0.898732 0.802515
vt 0.925727 0.729745
vt 0.936955 0.707262
vt 0.961927 0.697334
vt 0.950089 0.718913
vt 0.958066 0.633229
vt 0.965097 0.608549
vt 0.991549 0.603425
vt 0.984148 0.626900
vt 0.972810 0.531070
vt 0.975377 0.505243
vt 1.002288 0.505540
vt 0.999605 0.530012
vt 0.969378 0.427613
vt 0.967378 0.401736
vt 0.993711 0.407443
vt 0.995857 0.431963
vt 0.947909 0.327254
vt 0.941420 0.302426
vt 0.966167 0.312903
vt 0.973056 0.336534
vt 0.909220 0.234257
vt 0.898489 0.211534
vt 0.920709 0.225552
vt 0.932077 0.247386
vt 0.854794 0.152575
vt 0.840232 0.132922
vt 0.859086 0.148749
vt 0.874493 0.167946
vt 0.787259 0.868806
vt 0.798808 0.847716
vt 0.824448 0.837763
vt 0.811949 0.858502
vt 0.824890 0.770164
vt 0.833584 0.744314
vt 0.862032 0.737045
vt 0.852636 0.762225
vt 0.850084 0.656788
vt 0.855584 0.627613
vt 0.885741 0.623921
vt 0.879813 0.652202
vt 0.861853 0.534914
vt 0.863942 0.504014
vt 0.894645 0.504353
vt 0.892419 0.534245
vt 0.859719 0.411200
vt 0.858312 0.380261
vt 0.888380 0.384618
vt 0.889946 0.414552
vt 0.843746 0.292394
vt 0.838891 0.263104
vt 0.867173 0.270998
vt 0.872475 0.299402
vt 0.814526 0.184996
vt 0.806404 0.158960
vt 0.831819 0.169475
vt 0.840658 0.194856
vt 0.773159 0.094942
vt 0.762082 0.073600
vt 0.783660 0.085446
vt 0.795699 0.106452
vt 0.686454 0.905940
vt 0.694117 0.883568
vt 0.721885 0.877571
vt 0.713189 0.899722
vt 0.711586 0.798726
vt 0.717409 0.770445
vt 0.748238 0.766117
vt 0.741650 0.793981
vt 0.728662 0.673215
vt 0.732413 0.640805
vt 0.765114 0.638688
vt 0.760895 0.670545
vt 0.736995 0.537175
vt 0.738522 0.502631
vt 0.771836 0.502998
vt 0.770155 0.536921
vt 0.736227 0.398924
vt 0.735463 0.364356
vt 0.768109 0.367194
vt 0.769041 0.401145
vt 0.726357 0.266900
vt 0.723321 0.234416
vt 0.754048 0.239423
vt 0.757563 0.271366
vt 0.707727 0.149209
vt 0.702530 0.120807
vt 0.730159 0.127415
vt 0.736131 0.155417
vt 0.681024 0.053202
vt 0.673860 0.030664
vt 0.697333 0.038073
vt 0.705540 0.060408
vt 0.578494 0.926489
vt 0.581980 0.903367
vt 0.610810 0.901556
vt 0.606247 0.924596
vt 0.590167 0.814333
vt 0.592895 0.784655
vt 0.624921 0.783432
vt 0.621393 0.812963
vt 0.598466 0.681878
vt 0.600322 0.647619
vt 0.634311 0.647157
vt 0.631963 0.681226
vt 0.603032 0.537765
vt 0.603935 0.501146
vt 0.638581 0.501529
vt 0.637513 0.537935
vt 0.603649 0.391258
vt 0.603554 0.354630
vt 0.637524 0.355841
vt 0.637788 0.392263
vt 0.600252 0.251755
vt 0.599151 0.217464
vt 0.631142 0.219393
vt 0.632738 0.253505
vt 0.592931 0.128270
vt 0.590857 0.098540
vt 0.619640 0.100985
vt 0.622516 0.130587
vt 0.581929 0.028960
vt 0.578958 0.005765
vt 0.603424 0.008451
vt 0.607479 0.031584
vt 0.467528 0.929666
vt 0.466708 0.906353
vt 0.495491 0.908799
vt 0.495233 0.932172
vt 0.465299 0.816385
vt 0.464829 0.786395
vt 0.496820 0.788324
vt 0.496488 0.818443
vt 0.464497 0.682444
vt 0.464386 0.647794
vt 0.498356 0.649005
vt 0.497972 0.683835
vt 0.465113 0.536662
vt 0.465355 0.499618
vt 0.500000 0.500000
vt 0.499589 0.537252
vt 0.467080 0.388497
vt 0.467655 0.351457
vt 0.501643 0.350995
vt 0.501233 0.388246
vt 0.470280 0.247538
vt 0.471155 0.212899
vt 0.503180 0.211676
vt 0.502796 0.246505
vt 0.474548 0.122984
vt 0.475679 0.093012
vt 0.504509 0.091201
vt 0.504177 0.121320
vt 0.479681 0.023143
vt 0.481015 -0.000146
vt 0.505540 -0.002288
vt 0.505282 0.021085
vt 0.357822 0.915343
vt 0.352730 0.892408
vt 0.380360 0.899015
vt 0.384413 0.922149
vt 0.341781 0.804802
vt 0.338132 0.775600
vt 0.368858 0.780607
vt 0.371734 0.810209
vt 0.331905 0.674891
vt 0.329830 0.641321
vt 0.362476 0.644159
vt 0.364071 0.678271
vt 0.328537 0.533908
vt 0.328105 0.498104
vt 0.361419 0.498471
vt 0.361683 0.534893
vt 0.331767 0.390746
vt 0.332988 0.354960
vt 0.365689 0.352843
vt 0.364622 0.389250
vt 0.341435 0.254413
vt 0.344250 0.220897
vt 0.375079 0.216568
vt 0.372731 0.250637
vt 0.357128 0.133554
vt 0.361421 0.104440
vt 0.389190 0.098444
vt 0.385662 0.127975
vt 0.378209 0.035987
vt 0.383810 0.013171
vt 0.407443 0.006290
vt 0.402879 0.029327
vt 0.253591 0.884075
vt 0.244426 0.862070
vt 0.269841 0.872585
vt 0.278046 0.894922
vt 0.224360 0.780030
vt 0.217671 0.752683
vt 0.245952 0.760577
vt 0.251924 0.788579
vt 0.205785 0.659508
vt 0.201823 0.628450
vt 0.231891 0.632806
vt 0.235406 0.664749
vt 0.198552 0.529610
vt 0.197463 0.496663
vt 0.228164 0.497002
vt 0.229096 0.530953
vt 0.202912 0.397919
vt 0.204729 0.365004
vt 0.234885 0.361312
vt 0.233205 0.395235
vt 0.218667 0.272114
vt 0.223313 0.241151
vt 0.251762 0.233883
vt 0.247543 0.265740
vt 0.245184 0.159573
vt 0.252474 0.132381
vt 0.278115 0.122429
vt 0.271527 0.150292
vt 0.281415 0.066987
vt 0.291068 0.045192
vt 0.312903 0.033833
vt 0.304206 0.055981
vt 0.158839 0.837061
vt 0.145956 0.816506
vt 0.168181 0.830525
vt 0.180220 0.851534
vt 0.117548 0.743021
vt 0.108077 0.718527
vt 0.132827 0.729002
vt 0.141666 0.754383
vt 0.090984 0.636888
vt 0.085286 0.609676
vt 0.111620 0.615382
vt 0.116922 0.643787
vt 0.080154 0.523932
vt 0.078444 0.495350
vt 0.105355 0.495647
vt 0.106921 0.525581
vt 0.085466 0.409740
vt 0.087807 0.381203
vt 0.114259 0.376079
vt 0.112034 0.405971
vt 0.106696 0.299962
vt 0.112992 0.272882
vt 0.137968 0.262955
vt 0.132040 0.291235
vt 0.143016 0.200041
vt 0.153024 0.175762
vt 0.175552 0.162237
vt 0.166155 0.187416
vt 0.193018 0.114958
vt 0.206354 0.094692
vt 0.225553 0.079291
vt 0.213053 0.100026
vt 0.166356 0.155496
vt 0.179687 0.135227
vt 0.200550 0.120761
vt 0.188051 0.141499
vt 0.122962 0.183486
vt 0.137959 0.164159
vt 0.158824 0.149695
vt 0.144659 0.169490
vt 0.152955 0.144834
vt 0.167947 0.125507
vt 0.187149 0.110097
vt 0.172986 0.129896
vt 0.123001 0.248603
vt 0.133009 0.224322
vt 0.156759 0.212595
vt 0.147364 0.237775
vt 0.074273 0.270255
vt 0.085505 0.247775
vt 0.109259 0.236050
vt 0.098636 0.259429
vt 0.096740 0.225296
vt 0.107971 0.202815
vt 0.130495 0.189287
vt 0.119878 0.212669
vt 0.094103 0.354123
vt 0.100400 0.327043
vt 0.126114 0.319517
vt 0.120186 0.347798
vt 0.041934 0.366771
vt 0.048970 0.342094
vt 0.074686 0.334569
vt 0.068018 0.360448
vt 0.056010 0.317417
vt 0.063045 0.292738
vt 0.088017 0.282809
vt 0.081353 0.308689
vt 0.080784 0.466814
vt 0.083125 0.438277
vt 0.109807 0.435864
vt 0.107581 0.465755
vt 0.027190 0.468930
vt 0.029760 0.443104
vt 0.056443 0.440691
vt 0.053987 0.467872
vt 0.032333 0.417278
vt 0.034903 0.391451
vt 0.061354 0.386327
vt 0.058899 0.413509
vt 0.083576 0.581094
vt 0.081865 0.552513
vt 0.108488 0.555514
vt 0.110054 0.585448
vt 0.030622 0.572387
vt 0.028620 0.546510
vt 0.055243 0.549511
vt 0.057099 0.576741
vt 0.026620 0.520634
vt 0.024623 0.494757
vt 0.051533 0.495054
vt 0.053387 0.522282
vt 0.102379 0.691314
vt 0.096682 0.664101
vt 0.122224 0.672193
vt 0.127525 0.700598
vt 0.052091 0.672746
vt 0.045597 0.647919
vt 0.071140 0.656009
vt 0.077235 0.682030
vt 0.039107 0.623093
vt 0.032621 0.598264
vt 0.058953 0.603971
vt 0.065045 0.629990
vt 0.136486 0.792012
vt 0.127018 0.767516
vt 0.150503 0.779764
vt 0.159342 0.805144
vt 0.090780 0.765743
vt 0.080043 0.743022
vt 0.103532 0.755267
vt 0.113633 0.778877
vt 0.069309 0.720299
vt 0.058580 0.697574
vt 0.083327 0.708052
vt 0.093428 0.731659
vt 0.184600 0.878177
vt 0.171719 0.857619
vt 0.192258 0.872542
vt 0.204301 0.893548
vt 0.145206 0.847425
vt 0.130639 0.827774
vt 0.151181 0.842695
vt 0.164902 0.862801
vt 0.116073 0.808121
vt 0.101511 0.788466
vt 0.123732 0.802488
vt 0.137456 0.822592
vt 0.262122 0.110584
vt 0.271769 0.088785
vt 0.295507 0.078128
vt 0.286811 0.100278
vt 0.212741 0.131194
vt 0.224291 0.110105
vt 0.248031 0.099446
vt 0.237432 0.120890
vt 0.235842 0.089016
vt 0.247386 0.067923
vt 0.269226 0.056554
vt 0.258628 0.078000
vt 0.230603 0.213958
vt 0.237893 0.186766
vt 0.264938 0.178156
vt 0.258350 0.206019
vt 0.175110 0.229836
vt 0.183804 0.203986
vt 0.210848 0.195376
vt 0.202857 0.221897
vt 0.192498 0.178135
vt 0.201192 0.152284
vt 0.226833 0.142332
vt 0.218841 0.168854
vt 0.209375 0.334041
vt 0.214021 0.303077
vt 0.243323 0.297598
vt 0.239105 0.329455
vt 0.149916 0.343212
vt 0.155416 0.314037
vt 0.184718 0.308557
vt 0.179646 0.338627
vt 0.160916 0.284862
vt 0.166416 0.255686
vt 0.194865 0.248419
vt 0.189791 0.278488
vt 0.199279 0.463748
vt 0.201096 0.430834
vt 0.231525 0.429157
vt 0.229845 0.463079
vt 0.138147 0.465086
vt 0.140236 0.434187
vt 0.170666 0.432510
vt 0.168713 0.464417
vt 0.142326 0.403287
vt 0.144416 0.372387
vt 0.174572 0.368696
vt 0.172619 0.400603
vt 0.200733 0.595503
vt 0.199643 0.562557
vt 0.230027 0.564904
vt 0.230959 0.598855
vt 0.140280 0.588800
vt 0.138872 0.557862
vt 0.169258 0.560209
vt 0.170506 0.592151
vt 0.137465 0.526924
vt 0.136058 0.495986
vt 0.166760 0.496324
vt 0.168009 0.528267
vt 0.213709 0.721625
vt 0.209747 0.690567
vt 0.238921 0.696691
vt 0.242437 0.728634
vt 0.156254 0.707607
vt 0.151398 0.678317
vt 0.180573 0.684442
vt 0.184981 0.714616
vt 0.146543 0.649028
vt 0.141688 0.619738
vt 0.171755 0.624094
vt 0.176164 0.654268
vt 0.237737 0.834723
vt 0.231048 0.807377
vt 0.257896 0.816581
vt 0.263869 0.844583
vt 0.185474 0.815004
vt 0.177352 0.788968
vt 0.204200 0.798173
vt 0.211605 0.824864
vt 0.169230 0.762933
vt 0.161108 0.736896
vt 0.189390 0.744790
vt 0.196795 0.771481
vt 0.271918 0.928086
vt 0.262754 0.906080
vt 0.286251 0.917259
vt 0.294460 0.939592
vt 0.226841 0.905058
vt 0.215759 0.883719
vt 0.239258 0.894899
vt 0.249379 0.916573
vt 0.204676 0.862381
vt 0.193595 0.841040
vt 0.219010 0.851555
vt 0.229134 0.873226
vt 0.367018 0.081622
vt 0.372614 0.058804
vt 0.398315 0.052365
vt 0.393752 0.075404
vt 0.313546 0.094060
vt 0.321211 0.071689
vt 0.346913 0.065247
vt 0.340282 0.087842
vt 0.328875 0.049318
vt 0.336534 0.026944
vt 0.360171 0.020054
vt 0.353542 0.042650
vt 0.348543 0.191783
vt 0.352835 0.162668
vt 0.382134 0.157506
vt 0.378607 0.187037
vt 0.288414 0.201274
vt 0.294237 0.172993
vt 0.323536 0.167831
vt 0.318478 0.196528
vt 0.300060 0.144713
vt 0.305883 0.116432
vt 0.333652 0.110436
vt 0.328595 0.139133
vt 0.335804 0.321444
vt 0.338619 0.287928
vt 0.370384 0.284705
vt 0.368036 0.318774
vt 0.271337 0.326785
vt 0.275089 0.294375
vt 0.306854 0.291152
vt 0.303571 0.324115
vt 0.278840 0.261964
vt 0.282591 0.229555
vt 0.313421 0.225226
vt 0.310137 0.258189
vt 0.329326 0.462318
vt 0.330547 0.426532
vt 0.363554 0.425657
vt 0.362487 0.462064
vt 0.263005 0.462825
vt 0.264532 0.428282
vt 0.297540 0.427407
vt 0.296166 0.462572
vt 0.266059 0.393739
vt 0.267586 0.359195
vt 0.300287 0.357077
vt 0.298913 0.392242
vt 0.329399 0.605517
vt 0.328968 0.569712
vt 0.361947 0.571315
vt 0.362212 0.607737
vt 0.263772 0.601076
vt 0.263007 0.566507
vt 0.295988 0.568110
vt 0.296585 0.603296
vt 0.262243 0.531938
vt 0.261478 0.497369
vt 0.294792 0.497737
vt 0.295390 0.532923
vt 0.336056 0.742030
vt 0.333981 0.708460
vt 0.365667 0.712383
vt 0.367262 0.746495
vt 0.273643 0.733099
vt 0.270608 0.700614
vt 0.302294 0.704537
vt 0.304850 0.737565
vt 0.267573 0.668130
vt 0.264537 0.635644
vt 0.297183 0.638483
vt 0.299739 0.671510
vt 0.349080 0.863205
vt 0.345431 0.834004
vt 0.374609 0.839811
vt 0.377484 0.869413
vt 0.292272 0.850791
vt 0.287075 0.822389
vt 0.316252 0.828196
vt 0.320677 0.856998
vt 0.281877 0.793986
vt 0.276679 0.765584
vt 0.307405 0.770592
vt 0.311829 0.799394
vt 0.368004 0.961214
vt 0.362913 0.938279
vt 0.388466 0.945283
vt 0.392521 0.968416
vt 0.318976 0.946798
vt 0.311807 0.924263
vt 0.337361 0.931271
vt 0.343490 0.954009
vt 0.304638 0.901728
vt 0.297470 0.879193
vt 0.325100 0.885800
vt 0.331230 0.908535
vt 0.477013 0.069722
vt 0.478347 0.046433
vt 0.505024 0.044456
vt 0.504767 0.067828
vt 0.421506 0.073511
vt 0.424993 0.050389
vt 0.451671 0.048411
vt 0.449260 0.071616
vt 0.428480 0.027267
vt 0.431963 0.004144
vt 0.456488 0.001997
vt 0.454080 0.025203
vt 0.472286 0.182927
vt 0.473417 0.152955
vt 0.503844 0.151438
vt 0.503512 0.181557
vt 0.409833 0.185667
vt 0.412562 0.155989
vt 0.442990 0.154472
vt 0.441060 0.184297
vt 0.415291 0.126311
vt 0.418020 0.096633
vt 0.446849 0.094822
vt 0.444919 0.124647
vt 0.468530 0.316817
vt 0.469405 0.282178
vt 0.502412 0.281335
vt 0.502028 0.316165
vt 0.401534 0.318122
vt 0.403391 0.283863
vt 0.436398 0.283021
vt 0.435032 0.317470
vt 0.405248 0.249604
vt 0.407104 0.215345
vt 0.439129 0.214122
vt 0.437764 0.248571
vt 0.465930 0.462578
vt 0.466505 0.425538
vt 0.500822 0.425498
vt 0.500411 0.462748
vt 0.396968 0.462235
vt 0.397871 0.425617
vt 0.432188 0.425577
vt 0.431449 0.462407
vt 0.398774 0.388999
vt 0.399678 0.352381
vt 0.433666 0.351919
vt 0.432927 0.388748
vt 0.464628 0.610749
vt 0.464870 0.573706
vt 0.499178 0.574502
vt 0.498767 0.611754
vt 0.396351 0.608742
vt 0.396255 0.572112
vt 0.430563 0.572909
vt 0.430490 0.609745
vt 0.396160 0.535483
vt 0.396065 0.498854
vt 0.430710 0.499236
vt 0.430636 0.536072
vt 0.464719 0.751745
vt 0.464608 0.717094
vt 0.497588 0.718665
vt 0.497204 0.753495
vt 0.399748 0.748245
vt 0.398647 0.713954
vt 0.431628 0.715524
vt 0.432233 0.749995
vt 0.397547 0.679662
vt 0.396446 0.645370
vt 0.430416 0.646582
vt 0.431022 0.681053
vt 0.466239 0.876363
vt 0.465769 0.846374
vt 0.496155 0.848562
vt 0.495823 0.878680
vt 0.407069 0.871730
vt 0.404996 0.841999
vt 0.435382 0.844187
vt 0.436654 0.874046
vt 0.402922 0.812267
vt 0.400848 0.782537
vt 0.432839 0.784466
vt 0.434111 0.814326
vt 0.469168 0.976293
vt 0.468348 0.952980
vt 0.494975 0.955544
vt 0.494718 0.978915
vt 0.418071 0.971040
vt 0.415095 0.947847
vt 0.441722 0.950414
vt 0.443619 0.973668
vt 0.412118 0.924654
vt 0.409142 0.901461
vt 0.437925 0.903907
vt 0.439824 0.927160
vt 0.587881 0.075346
vt 0.584905 0.052153
vt 0.611533 0.054717
vt 0.615587 0.077851
vt 0.532471 0.070334
vt 0.531652 0.047020
vt 0.558278 0.049586
vt 0.560176 0.072840
vt 0.530832 0.023707
vt 0.530012 0.000395
vt 0.554486 0.003077
vt 0.556381 0.026332
vt 0.597078 0.187733
vt 0.595004 0.158001
vt 0.625391 0.160189
vt 0.628266 0.189791
vt 0.534701 0.183616
vt 0.534231 0.153626
vt 0.564618 0.155813
vt 0.565889 0.185674
vt 0.533761 0.123637
vt 0.533291 0.093647
vt 0.562074 0.096093
vt 0.563346 0.125954
vt 0.602453 0.320338
vt 0.601353 0.286046
vt 0.634333 0.287617
vt 0.635928 0.321729
vt 0.535503 0.317556
vt 0.535392 0.282906
vt 0.568372 0.284476
vt 0.568978 0.318947
vt 0.535281 0.248255
vt 0.535170 0.213605
vt 0.567161 0.215534
vt 0.567767 0.250005
vt 0.603840 0.464517
vt 0.603744 0.427888
vt 0.638052 0.428685
vt 0.638316 0.465107
vt 0.534887 0.463338
vt 0.535130 0.426294
vt 0.569437 0.427091
vt 0.569363 0.463928
vt 0.535371 0.389251
vt 0.535614 0.352206
vt 0.569584 0.353418
vt 0.569510 0.390255
vt 0.601225 0.611001
vt 0.602129 0.574383
vt 0.636446 0.574343
vt 0.635378 0.610750
vt 0.532920 0.611503
vt 0.533495 0.574463
vt 0.567812 0.574423
vt 0.567073 0.611252
vt 0.534070 0.537422
vt 0.534645 0.500382
vt 0.569290 0.500764
vt 0.568551 0.537593
vt 0.594752 0.750396
vt 0.596609 0.716137
vt 0.629616 0.715295
vt 0.627268 0.749363
vt 0.529720 0.752462
vt 0.530595 0.717822
vt 0.563602 0.716979
vt 0.562236 0.751429
vt 0.531470 0.683182
vt 0.532345 0.648543
vt 0.566334 0.648081
vt 0.564968 0.682530
vt 0.584709 0.873689
vt 0.587437 0.844011
vt 0.617865 0.842494
vt 0.614338 0.872025
vt 0.525451 0.877017
vt 0.526582 0.847045
vt 0.557010 0.845528
vt 0.555080 0.875353
vt 0.527714 0.817073
vt 0.528845 0.787101
vt 0.560870 0.785878
vt 0.558940 0.815703
vt 0.571520 0.972733
vt 0.575006 0.949611
vt 0.601685 0.947635
vt 0.597121 0.970672
vt 0.520319 0.976857
vt 0.521653 0.953568
vt 0.548329 0.951590
vt 0.545920 0.974797
vt 0.522986 0.930278
vt 0.524320 0.906988
vt 0.553150 0.905178
vt 0.550739 0.928384
vt 0.695362 0.098272
vt 0.688192 0.075737
vt 0.713748 0.082741
vt 0.721953 0.105078
vt 0.642177 0.084657
vt 0.637086 0.061721
vt 0.662639 0.068729
vt 0.668770 0.091465
vt 0.631996 0.038786
vt 0.626899 0.015852
vt 0.650381 0.023255
vt 0.656510 0.045991
vt 0.718123 0.206014
vt 0.712925 0.177611
vt 0.742103 0.183419
vt 0.748075 0.211421
vt 0.658219 0.195198
vt 0.654569 0.165996
vt 0.683747 0.171804
vt 0.688171 0.200606
vt 0.650919 0.136795
vt 0.647270 0.107593
vt 0.674900 0.114200
vt 0.679323 0.143002
vt 0.732427 0.331871
vt 0.729392 0.299386
vt 0.761078 0.303309
vt 0.764593 0.335251
vt 0.668095 0.325109
vt 0.666019 0.291540
vt 0.697706 0.295463
vt 0.700261 0.328490
vt 0.663943 0.257970
vt 0.661868 0.224400
vt 0.692594 0.229408
vt 0.695150 0.262435
vt 0.737757 0.468062
vt 0.736992 0.433493
vt 0.769972 0.435096
vt 0.770904 0.469047
vt 0.671463 0.466092
vt 0.671032 0.430288
vt 0.704012 0.431890
vt 0.704610 0.467077
vt 0.670601 0.394483
vt 0.670170 0.358679
vt 0.702816 0.361517
vt 0.703414 0.396704
vt 0.733940 0.606261
vt 0.735468 0.571718
vt 0.768475 0.570843
vt 0.766795 0.604765
vt 0.668232 0.609254
vt 0.669453 0.573468
vt 0.702460 0.572593
vt 0.701086 0.607758
vt 0.670673 0.537682
vt 0.671894 0.501896
vt 0.705208 0.502263
vt 0.703834 0.537428
vt 0.721160 0.738036
vt 0.724911 0.705625
vt 0.756676 0.702402
vt 0.752457 0.734259
vt 0.658565 0.745587
vt 0.661381 0.712072
vt 0.693146 0.708848
vt 0.689863 0.741811
vt 0.664196 0.678556
vt 0.667011 0.645040
vt 0.699713 0.642923
vt 0.696429 0.675885
vt 0.699940 0.855287
vt 0.705762 0.827007
vt 0.735062 0.821844
vt 0.728473 0.849708
vt 0.642871 0.866446
vt 0.647164 0.837332
vt 0.676464 0.832169
vt 0.671405 0.860867
vt 0.651457 0.808217
vt 0.655750 0.779103
vt 0.686579 0.774774
vt 0.681521 0.803472
vt 0.671125 0.950682
vt 0.678789 0.928311
vt 0.704493 0.921872
vt 0.695794 0.944019
vt 0.621791 0.964013
vt 0.627386 0.941196
vt 0.653087 0.934753
vt 0.646458 0.957350
vt 0.632982 0.918378
vt 0.638579 0.895560
vt 0.666348 0.889564
vt 0.659718 0.912158
vt 0.795324 0.137620
vt 0.784241 0.116281
vt 0.807741 0.127458
vt 0.819780 0.148466
vt 0.746409 0.115925
vt 0.737245 0.093920
vt 0.760742 0.105101
vt 0.770866 0.126774
vt 0.728082 0.071914
vt 0.718912 0.049911
vt 0.740499 0.061752
vt 0.750621 0.083427
vt 0.830770 0.237068
vt 0.822648 0.211032
vt 0.849496 0.220236
vt 0.858334 0.245617
vt 0.775640 0.219970
vt 0.768952 0.192623
vt 0.795800 0.201827
vt 0.803205 0.228519
vt 0.762263 0.165277
vt 0.755574 0.137930
vt 0.780990 0.148445
vt 0.788395 0.175136
vt 0.853457 0.350972
vt 0.848602 0.321683
vt 0.877776 0.327807
vt 0.883078 0.356213
vt 0.794215 0.340492
vt 0.790253 0.309433
vt 0.819427 0.315558
vt 0.823835 0.345732
vt 0.786291 0.278375
vt 0.782329 0.247317
vt 0.810610 0.255210
vt 0.815019 0.285384
vt 0.862535 0.473076
vt 0.861127 0.442138
vt 0.891512 0.444486
vt 0.893078 0.474419
vt 0.801448 0.470390
vt 0.800357 0.437443
vt 0.830742 0.439790
vt 0.831991 0.471733
vt 0.799267 0.404497
vt 0.798177 0.371550
vt 0.828245 0.375906
vt 0.829493 0.407849
vt 0.857673 0.596713
vt 0.859763 0.565813
vt 0.890193 0.564136
vt 0.887966 0.594029
vt 0.797088 0.602081
vt 0.798904 0.569166
vt 0.829334 0.567490
vt 0.827381 0.599397
vt 0.800721 0.536252
vt 0.802537 0.503337
vt 0.833240 0.503676
vt 0.831287 0.535583
vt 0.839083 0.715138
vt 0.844584 0.685963
vt 0.873886 0.680483
vt 0.867959 0.708765
vt 0.781333 0.727886
vt 0.785979 0.696923
vt 0.815281 0.691443
vt 0.810208 0.721512
vt 0.790625 0.665959
vt 0.795271 0.634996
vt 0.825428 0.631304
vt 0.820354 0.661373
vt 0.807501 0.821865
vt 0.816196 0.796014
vt 0.843241 0.787405
vt 0.833845 0.812584
vt 0.754816 0.840427
vt 0.762106 0.813234
vt 0.789151 0.804624
vt 0.781159 0.831146
vt 0.769397 0.786041
vt 0.776687 0.758849
vt 0.805135 0.751581
vt 0.797144 0.778103
vt 0.764158 0.910984
vt 0.775708 0.889895
vt 0.799449 0.879239
vt 0.786947 0.899974
vt 0.718584 0.933013
vt 0.728231 0.911214
vt 0.751968 0.900554
vt 0.741372 0.922000
vt 0.737877 0.889416
vt 0.747526 0.867619
vt 0.773167 0.857668
vt 0.762568 0.879110
vt 0.883927 0.191879
vt 0.869360 0.172226
vt 0.889903 0.187149
vt 0.905307 0.206353
vt 0.841161 0.162939
vt 0.828280 0.142381
vt 0.848819 0.157305
vt 0.862544 0.177408
vt 0.815400 0.121823
vt 0.802514 0.101268
vt 0.821375 0.117092
vt 0.835098 0.137199
vt 0.930691 0.279701
vt 0.919957 0.256978
vt 0.943446 0.269226
vt 0.954808 0.291068
vt 0.882452 0.256979
vt 0.872982 0.232484
vt 0.896468 0.244733
vt 0.906572 0.268341
vt 0.863513 0.207988
vt 0.854044 0.183494
vt 0.876268 0.197513
vt 0.886366 0.221123
vt 0.960893 0.376907
vt 0.954403 0.352081
vt 0.979946 0.360171
vt 0.986829 0.383810
vt 0.909016 0.363112
vt 0.903317 0.335899
vt 0.928859 0.343991
vt 0.934954 0.370010
vt 0.897620 0.308686
vt 0.891923 0.281473
vt 0.916673 0.291948
vt 0.922765 0.317970
vt 0.973380 0.479366
vt 0.971380 0.453489
vt 0.998004 0.456488
vt 1.000146 0.481015
vt 0.919846 0.476068
vt 0.918135 0.447487
vt 0.944757 0.450489
vt 0.946613 0.477718
vt 0.916424 0.418906
vt 0.914713 0.390324
vt 0.941047 0.396029
vt 0.942901 0.423259
vt 0.967667 0.582722
vt 0.970240 0.556896
vt 0.996923 0.554486
vt 0.994235 0.578958
vt 0.914534 0.590260
vt 0.916875 0.561723
vt 0.943557 0.559309
vt 0.941100 0.586491
vt 0.919216 0.533186
vt 0.921555 0.504650
vt 0.948467 0.504946
vt 0.946012 0.532128
vt 0.943990 0.682583
vt 0.951030 0.657906
vt 0.976745 0.650381
vt 0.969336 0.673860
vt 0.893304 0.700038
vt 0.899600 0.672957
vt 0.925314 0.665431
vt 0.918647 0.691311
vt 0.905897 0.645877
vt 0.912194 0.618797
vt 0.938646 0.613673
vt 0.931981 0.639552
vt 0.903259 0.774704
vt 0.914494 0.752225
vt 0.938248 0.740499
vt 0.926400 0.762083
vt 0.856984 0.799959
vt 0.866991 0.775678
vt 0.890741 0.763950
vt 0.880121 0.787331
vt 0.876999 0.751397
vt 0.887008 0.727118
vt 0.911982 0.717191
vt 0.901363 0.740571
vt 0.847045 0.855166
vt 0.862041 0.835842
vt 0.882907 0.821375
vt 0.867077 0.840233
vt 0.806982 0.885042
vt 0.820313 0.864773
vt 0.841175 0.850305
vt 0.827014 0.870104
vt 0.833643 0.844504
vt 0.846976 0.824238
vt 0.869504 0.810714
vt 0.855340 0.830510
vt 0.793646 0.905308
vt 0.812851 0.889903
vt 0.774447 0.920709
vt 0.832053 0.874493
vt 0.851251 0.859086
vt 0.708931 0.954808
vt 0.730774 0.943446
vt 0.687096 0.966167
vt 0.752614 0.932077
vt 0.616190 0.986829
vt 0.639829 0.979946
vt 0.592557 0.993710
vt 0.663466 0.973056
vt 0.518985 1.000146
vt 0.543512 0.998003
vt 0.494460 1.002288
vt 0.568037 0.995856
vt 0.421042 0.994235
vt 0.445514 0.996922
vt 0.396576 0.991549
vt 0.469988 0.999605
vt 0.326140 0.969335
vt 0.349619 0.976745
vt 0.302667 0.961927
vt 0.373101 0.984148
vt 0.237917 0.926400
vt 0.259501 0.938248
vt 0.216340 0.914554
vt 0.281087 0.950089
vt 0.110097 0.812851
vt 0.094693 0.793647
vt 0.079290 0.774448
vt 0.159767 0.867078
vt 0.178625 0.882908
vt 0.140914 0.851251
vt 0.125507 0.832054
vt 0.197486 0.898732
vt 0.056554 0.730774
vt 0.045192 0.708932
vt 0.033833 0.687097
vt 0.067923 0.752614
vt 0.020054 0.639829
vt 0.013171 0.616190
vt 0.006289 0.592557
vt 0.026943 0.663466
vt 0.001996 0.543512
vt -0.000146 0.518985
vt -0.002288 0.494460
vt 0.004143 0.568037
vt 0.003077 0.445514
vt 0.005764 0.421042
vt 0.008451 0.396575
vt 0.000394 0.469988
vt 0.023255 0.349619
vt 0.030664 0.326140
vt 0.038073 0.302666
vt 0.015852 0.373100
vt 0.061752 0.259501
vt 0.073600 0.237917
vt 0.085446 0.216340
vt 0.049911 0.281087
vt 0.117092 0.178625
vt 0.132922 0.159767
vt 0.148749 0.140914
vt 0.101268 0.197485
s 1
f 1089/1/1 323/2/1 32/3/1 321/4/1
f 1088/5/1 325/6/1 31/7/1 320/8/1
f 1087/9/1 327/10/1 30/11/1 319/12/1
f 1086/13/1 329/14/1 29/15/1 318/16/1
f 1085/17/1 331/18/1 28/19/1 317/20/1
f 1084/21/1 333/22/1 27/23/1 316/24/1
f 1083/25/1 335/26/1 26/27/1 315/28/1
f 1082/29/1 457/30/1 25/31/1 314/32/1
f 1081/33/1 338/34/1 33/35/1 322/36/1
f 1080/37/1 340/38/1 40/39/1 324/40/1
f 1079/41/1 342/42/1 47/43/1 326/44/1
f 1078/45/1 344/46/1 54/47/1 328/48/1
f 1077/49/1 346/50/1 61/51/1 330/52/1
f 1076/53/1 348/54/1 68/55/1 332/56/1
f 1075/57/1 350/58/1 75/59/1 334/60/1
f 1074/61/1 456/62/1 24/63/1 336/64/1
f 1073/65/1 353/66/1 34/67/1 337/68/1
f 1072/69/1 355/70/1 41/71/1 339/72/1
f 1071/73/1 357/74/1 48/75/1 341/76/1
f 1070/77/1 359/78/1 55/79/1 343/80/1
f 1069/81/1 361/82/1 62/83/1 345/84/1
f 1068/85/1 363/86/1 69/87/1 347/88/1
f 1067/89/1 365/90/1 76/91/1 349/92/1
f 1066/93/1 455/94/1 23/95/1 351/96/1
f 1065/97/1 368/98/1 35/99/1 352/100/1
f 1064/101/1 370/102/1 42/103/1 354/104/1
f 1063/105/1 372/106/1 49/107/1 356/108/1
f 1062/109/1 374/110/1 56/111/1 358/112/1
f 1061/113/1 376/114/1 63/115/1 360/116/1
f 1060/117/1 378/118/1 70/119/1 362/120/1
f 1059/121/1 380/122/1 77/123/1 364/124/1
f 1058/125/1 454/126/1 22/127/1 366/128/1
f 1057/129/1 383/130/1 36/131/1 367/132/1
f 1056/133/1 385/134/1 43/135/1 369/136/1
f 1055/137/1 387/138/1 50/139/1 371/140/1
f 1054/141/1 389/142/1 57/143/1 373/144/1
f 1053/145/1 391/146/1 64/147/1 375/148/1
f 1052/149/1 393/150/1 71/151/1 377/152/1
f 1051/153/1 395/154/1 78/155/1 379/156/1
f 1050/157/1 453/158/1 21/159/1 381/160/1
f 1049/161/1 398/162/1 37/163/1 382/164/1
f 1048/165/1 400/166/1 44/167/1 384/168/1
f 1047/169/1 402/170/1 51/171/1 386/172/1
f 1046/173/1 404/174/1 58/175/1 388/176/1
f 1045/177/1 406/178/1 65/179/1 390/180/1
f 1044/181/1 408/182/1 72/183/1 392/184/1
f 1043/185/1 410/186/1 79/187/1 394/188/1
f 1042/189/1 452/190/1 20/191/1 396/192/1
f 1041/193/1 413/194/1 38/195/1 397/196/1
f 1040/197/1 415/198/1 45/199/1 399/200/1
f 1039/201/1 417/202/1 52/203/1 401/204/1
f 1038/205/1 419/206/1 59/207/1 403/208/1
f 1037/209/1 421/210/1 66/211/1 405/212/1
f 1036/213/1 423/214/1 73/215/1 407/216/1
f 1035/217/1 425/218/1 80/219/1 409/220/1
f 1034/221/1 451/222/1 19/223/1 411/224/1
f 1033/225/1 427/226/1 39/227/1 412/228/1
f 1032/229/1 428/230/1 46/231/1 414/232/1
f 1031/233/1 429/234/1 53/235/1 416/236/1
f 1030/237/1 430/238/1 60/239/1 418/240/1
f 1029/241/1 431/242/1 67/243/1 420/244/1
f 1028/245/1 432/246/1 74/247/1 422/248/1
f 1027/249/1 433/250/1 81/251/1 424/252/1
f 1026/253/1 450/254/1 18/255/1 426/256/1
f 1025/257/1 578/258/1 218/259/1 570/260/1
f 1024/261/1 579/262/1 226/263/1 580/264/1
f 1023/265/1 306/266/1 98/267/1 581/268/1
f 1022/269/1 582/270/1 216/271/1 568/272/1
f 1021/273/1 583/274/1 227/275/1 584/276/1
f 1020/277/1 577/278/1 225/279/1 585/280/1
f 1019/281/1 586/282/1 214/283/1 566/284/1
f 1018/285/1 587/286/1 228/287/1 588/288/1
f 1017/289/1 576/290/1 224/291/1 589/292/1
f 1016/293/1 590/294/1 212/295/1 564/296/1
f 1015/297/1 591/298/1 229/299/1 592/300/1
f 1014/301/1 575/302/1 223/303/1 593/304/1
f 1013/305/1 594/306/1 210/307/1 562/308/1
f 1012/309/1 595/310/1 230/311/1 596/312/1
f 1011/313/1 574/314/1 222/315/1 597/316/1
f 1010/317/1 598/318/1 208/319/1 560/320/1
f 1009/321/1 599/322/1 231/323/1 600/324/1
f 1008/325/1 573/326/1 221/327/1 601/328/1
f 1007/329/1 602/330/1 206/331/1 558/332/1
f 1006/333/1 603/334/1 232/335/1 604/336/1
f 1005/337/1 572/338/1 220/339/1 605/340/1
f 1004/341/1 606/342/1 204/343/1 556/344/1
f 1003/345/1 607/346/1 233/347/1 608/348/1
f 1002/349/1 571/350/1 219/351/1 609/352/1
f 1001/353/1 610/354/1 203/355/1 555/356/1
f 1000/357/1 611/358/1 234/359/1 612/360/1
f 999/361/1 307/362/1 99/363/1 613/364/1
f 998/365/1 614/366/1 201/367/1 553/368/1
f 997/369/1 615/370/1 235/371/1 616/372/1
f 996/373/1 569/374/1 217/375/1 617/376/1
f 995/377/1 618/378/1 199/379/1 551/380/1
f 994/381/1 619/382/1 236/383/1 620/384/1
f 993/385/1 567/386/1 215/387/1 621/388/1
f 992/389/1 622/390/1 197/391/1 549/392/1
f 991/393/1 623/394/1 237/395/1 624/396/1
f 990/397/1 565/398/1 213/399/1 625/400/1
f 989/401/1 626/402/1 195/403/1 547/404/1
f 988/405/1 627/406/1 238/407/1 628/408/1
f 987/409/1 563/410/1 211/411/1 629/412/1
f 986/413/1 630/414/1 193/415/1 545/416/1
f 985/417/1 631/418/1 239/419/1 632/420/1
f 984/421/1 561/422/1 209/423/1 633/424/1
f 983/425/1 634/426/1 191/427/1 543/428/1
f 982/429/1 635/430/1 240/431/1 636/432/1
f 981/433/1 559/434/1 207/435/1 637/436/1
f 980/437/1 638/438/1 189/439/1 541/440/1
f 979/441/1 639/442/1 241/443/1 640/444/1
f 978/445/1 557/446/1 205/447/1 641/448/1
f 977/449/1 642/450/1 188/451/1 540/452/1
f 976/453/1 643/454/1 242/455/1 644/456/1
f 975/457/1 308/458/1 100/459/1 645/460/1
f 974/461/1 646/462/1 186/463/1 538/464/1
f 973/465/1 647/466/1 243/467/1 648/468/1
f 972/469/1 554/470/1 202/471/1 649/472/1
f 971/473/1 650/474/1 184/475/1 536/476/1
f 970/477/1 651/478/1 244/479/1 652/480/1
f 969/481/1 552/482/1 200/483/1 653/484/1
f 968/485/1 654/486/1 182/487/1 534/488/1
f 967/489/1 655/490/1 245/491/1 656/492/1
f 966/493/1 550/494/1 198/495/1 657/496/1
f 965/497/1 658/498/1 180/499/1 532/500/1
f 964/501/1 659/502/1 246/503/1 660/504/1
f 963/505/1 548/506/1 196/507/1 661/508/1
f 962/509/1 662/510/1 178/511/1 530/512/1
f 961/513/1 663/514/1 247/515/1 664/516/1
f 960/517/1 546/518/1 194/519/1 665/520/1
f 959/521/1 666/522/1 176/523/1 528/524/1
f 958/525/1 667/526/1 248/527/1 668/528/1
f 957/529/1 544/530/1 192/531/1 669/532/1
f 956/533/1 670/534/1 174/535/1 526/536/1
f 955/537/1 671/538/1 249/539/1 672/540/1
f 954/541/1 542/542/1 190/543/1 673/544/1
f 953/545/1 674/546/1 173/547/1 525/548/1
f 952/549/1 675/550/1 250/551/1 676/552/1
f 951/553/1 309/554/1 101/555/1 677/556/1
f 950/557/1 678/558/1 171/559/1 523/560/1
f 949/561/1 679/562/1 251/563/1 680/564/1
f 948/565/1 539/566/1 187/567/1 681/568/1
f 947/569/1 682/570/1 169/571/1 521/572/1
f 946/573/1 683/574/1 252/575/1 684/576/1
f 945/577/1 537/578/1 185/579/1 685/580/1
f 944/581/1 686/582/1 167/583/1 519/584/1
f 943/585/1 687/586/1 253/587/1 688/588/1
f 942/589/1 535/590/1 183/591/1 689/592/1
f 941/593/1 690/594/1 165/595/1 517/596/1
f 940/597/1 691/598/1 254/599/1 692/600/1
f 939/601/1 533/602/1 181/603/1 693/604/1
f 938/605/1 694/606/1 163/607/1 515/608/1
f 937/609/1 695/610/1 255/611/1 696/612/1
f 936/613/1 531/614/1 179/615/1 697/616/1
f 935/617/1 698/618/1 161/619/1 513/620/1
f 934/621/1 699/622/1 256/623/1 700/624/1
f 933/625/1 529/626/1 177/627/1 701/628/1
f 932/629/1 702/630/1 159/631/1 511/632/1
f 931/633/1 703/634/1 257/635/1 704/636/1
f 930/637/1 527/638/1 175/639/1 705/640/1
f 929/641/1 706/642/1 158/643/1 510/644/1
f 928/645/1 707/646/1 258/647/1 708/648/1
f 927/649/1 310/650/1 102/651/1 709/652/1
f 926/653/1 710/654/1 156/655/1 508/656/1
f 925/657/1 711/658/1 259/659/1 712/660/1
f 924/661/1 524/662/1 172/663/1 713/664/1
f 923/665/1 714/666/1 154/667/1 506/668/1
f 922/669/1 715/670/1 260/671/1 716/672/1
f 921/673/1 522/674/1 170/675/1 717/676/1
f 920/677/1 718/678/1 152/679/1 504/680/1
f 919/681/1 719/682/1 261/683/1 720/684/1
f 918/685/1 520/686/1 168/687/1 721/688/1
f 917/689/1 722/690/1 150/691/1 502/692/1
f 916/693/1 723/694/1 262/695/1 724/696/1
f 915/697/1 518/698/1 166/699/1 725/700/1
f 914/701/1 726/702/1 148/703/1 500/704/1
f 913/705/1 727/706/1 263/707/1 728/708/1
f 912/709/1 516/710/1 164/711/1 729/712/1
f 911/713/1 730/714/1 146/715/1 498/716/1
f 910/717/1 731/718/1 264/719/1 732/720/1
f 909/721/1 514/722/1 162/723/1 733/724/1
f 908/725/1 734/726/1 144/727/1 496/728/1
f 907/729/1 735/730/1 265/731/1 736/732/1
f 906/733/1 512/734/1 160/735/1 737/736/1
f 905/737/1 738/738/1 143/739/1 495/740/1
f 904/741/1 739/742/1 266/743/1 740/744/1
f 903/745/1 311/746/1 103/747/1 741/748/1
f 902/749/1 742/750/1 141/751/1 493/752/1
f 901/753/1 743/754/1 267/755/1 744/756/1
f 900/757/1 509/758/1 157/759/1 745/760/1
f 899/761/1 746/762/1 139/763/1 491/764/1
f 898/765/1 747/766/1 268/767/1 748/768/1
f 897/769/1 507/770/1 155/771/1 749/772/1
f 896/773/1 750/774/1 137/775/1 489/776/1
f 895/777/1 751/778/1 269/779/1 752/780/1
f 894/781/1 505/782/1 153/783/1 753/784/1
f 893/785/1 754/786/1 135/787/1 487/788/1
f 892/789/1 755/790/1 270/791/1 756/792/1
f 891/793/1 503/794/1 151/795/1 757/796/1
f 890/797/1 758/798/1 133/799/1 485/800/1
f 889/801/1 759/802/1 271/803/1 760/804/1
f 888/805/1 501/806/1 149/807/1 761/808/1
f 887/809/1 762/810/1 131/811/1 483/812/1
f 886/813/1 763/814/1 272/815/1 764/816/1
f 885/817/1 499/818/1 147/819/1 765/820/1
f 884/821/1 766/822/1 129/823/1 481/824/1
f 883/825/1 767/826/1 273/827/1 768/828/1
f 882/829/1 497/830/1 145/831/1 769/832/1
f 881/833/1 770/834/1 128/835/1 480/836/1
f 880/837/1 771/838/1 274/839/1 772/840/1
f 879/841/1 312/842/1 104/843/1 773/844/1
f 878/845/1 774/846/1 126/847/1 478/848/1
f 877/849/1 775/850/1 275/851/1 776/852/1
f 876/853/1 494/854/1 142/855/1 777/856/1
f 875/857/1 778/858/1 124/859/1 476/860/1
f 874/861/1 779/862/1 276/863/1 780/864/1
f 873/865/1 492/866/1 140/867/1 781/868/1
f 872/869/1 782/870/1 122/871/1 474/872/1
f 871/873/1 783/874/1 277/875/1 784/876/1
f 870/877/1 490/878/1 138/879/1 785/880/1
f 869/881/1 786/882/1 120/883/1 472/884/1
f 868/885/1 787/886/1 278/887/1 788/888/1
f 867/889/1 488/890/1 136/891/1 789/892/1
f 866/893/1 790/894/1 118/895/1 470/896/1
f 865/897/1 791/898/1 279/899/1 792/900/1
f 864/901/1 486/902/1 134/903/1 793/904/1
f 863/905/1 794/906/1 116/907/1 468/908/1
f 862/909/1 795/910/1 280/911/1 796/912/1
f 861/913/1 484/914/1 132/915/1 797/916/1
f 860/917/1 798/918/1 114/919/1 466/920/1
f 859/921/1 799/922/1 281/923/1 800/924/1
f 858/925/1 482/926/1 130/927/1 801/928/1
f 857/929/1 802/930/1 106/931/1 458/932/1
f 856/933/1 803/934/1 282/935/1 804/936/1
f 855/937/1 313/938/1 105/939/1 805/940/1
f 854/941/1 806/942/1 107/943/1 459/944/1
f 853/945/1 807/946/1 283/947/1 808/948/1
f 852/949/1 479/950/1 127/951/1 809/952/1
f 851/953/1 810/954/1 108/955/1 460/956/1
f 850/957/1 811/958/1 284/959/1 812/960/1
f 849/961/1 477/962/1 125/963/1 813/964/1
f 848/965/1 814/966/1 109/967/1 461/968/1
f 847/969/1 815/970/1 285/971/1 816/972/1
f 846/973/1 475/974/1 123/975/1 817/976/1
f 845/977/1 818/978/1 110/979/1 462/980/1
f 844/981/1 819/982/1 286/983/1 820/984/1
f 843/985/1 473/986/1 121/987/1 821/988/1
f 842/989/1 822/990/1 111/991/1 463/992/1
f 841/993/1 823/994/1 287/995/1 824/996/1
f 840/997/1 471/998/1 119/999/1 825/1000/1
f 839/1001/1 826/1002/1 112/1003/1 464/1004/1
f 838/1005/1 827/1006/1 288/1007/1 828/1008/1
f 837/1009/1 469/1010/1 117/1011/1 829/1012/1
f 836/1013/1 830/1014/1 113/1015/1 465/1016/1
f 835/1017/1 831/1018/1 289/1019/1 832/1020/1
f 834/1021/1 467/1022/1 115/1023/1 833/1024/1
f 831/1018/1 834/1021/1 833/1024/1 289/1019/1
f 114/919/1 322/36/1 834/1021/1 831/1018/1
f 322/36/1 33/35/1 467/1022/1 834/1021/1
f 434/1025/1 835/1017/1 832/1020/1 82/1026/1
f 2/1027/1 466/920/1 835/1017/1 434/1025/1
f 466/920/1 114/919/1 831/1018/1 835/1017/1
f 290/1028/1 836/1013/1 465/1016/1 1/1029/1
f 82/1026/1 832/1020/1 836/1013/1 290/1028/1
f 832/1020/1 289/1019/1 830/1014/1 836/1013/1
f 827/1006/1 837/1009/1 829/1012/1 288/1007/1
f 116/907/1 324/40/1 837/1009/1 827/1006/1
f 324/40/1 40/39/1 469/1010/1 837/1009/1
f 467/1022/1 838/1005/1 828/1008/1 115/1023/1
f 33/35/1 468/908/1 838/1005/1 467/1022/1
f 468/908/1 116/907/1 827/1006/1 838/1005/1
f 323/2/1 839/1001/1 464/1004/1 32/3/1
f 115/1023/1 828/1008/1 839/1001/1 323/2/1
f 828/1008/1 288/1007/1 826/1002/1 839/1001/1
f 823/994/1 840/997/1 825/1000/1 287/995/1
f 118/895/1 326/44/1 840/997/1 823/994/1
f 326/44/1 47/43/1 471/998/1 840/997/1
f 469/1010/1 841/993/1 824/996/1 117/1011/1
f 40/39/1 470/896/1 841/993/1 469/1010/1
f 470/896/1 118/895/1 823/994/1 841/993/1
f 325/6/1 842/989/1 463/992/1 31/7/1
f 117/1011/1 824/996/1 842/989/1 325/6/1
f 824/996/1 287/995/1 822/990/1 842/989/1
f 819/982/1 843/985/1 821/988/1 286/983/1
f 120/883/1 328/48/1 843/985/1 819/982/1
f 328/48/1 54/47/1 473/986/1 843/985/1
f 471/998/1 844/981/1 820/984/1 119/999/1
f 47/43/1 472/884/1 844/981/1 471/998/1
f 472/884/1 120/883/1 819/982/1 844/981/1
f 327/10/1 845/977/1 462/980/1 30/11/1
f 119/999/1 820/984/1 845/977/1 327/10/1
f 820/984/1 286/983/1 818/978/1 845/977/1
f 815/970/1 846/973/1 817/976/1 285/971/1
f 122/871/1 330/52/1 846/973/1 815/970/1
f 330/52/1 61/51/1 475/974/1 846/973/1
f 473/986/1 847/969/1 816/972/1 121/987/1
f 54/47/1 474/872/1 847/969/1 473/986/1
f 474/872/1 122/871/1 815/970/1 847/969/1
f 329/14/1 848/965/1 461/968/1 29/15/1
f 121/987/1 816/972/1 848/965/1 329/14/1
f 816/972/1 285/971/1 814/966/1 848/965/1
f 811/958/1 849/961/1 813/964/1 284/959/1
f 124/859/1 332/56/1 849/961/1 811/958/1
f 332/56/1 68/55/1 477/962/1 849/961/1
f 475/974/1 850/957/1 812/960/1 123/975/1
f 61/51/1 476/860/1 850/957/1 475/974/1
f 476/860/1 124/859/1 811/958/1 850/957/1
f 331/18/1 851/953/1 460/956/1 28/19/1
f 123/975/1 812/960/1 851/953/1 331/18/1
f 812/960/1 284/959/1 810/954/1 851/953/1
f 807/946/1 852/949/1 809/952/1 283/947/1
f 126/847/1 334/60/1 852/949/1 807/946/1
f 334/60/1 75/59/1 479/950/1 852/949/1
f 477/962/1 853/945/1 808/948/1 125/963/1
f 68/55/1 478/848/1 853/945/1 477/962/1
f 478/848/1 126/847/1 807/946/1 853/945/1
f 333/22/1 854/941/1 459/944/1 27/23/1
f 125/963/1 808/948/1 854/941/1 333/22/1
f 808/948/1 283/947/1 806/942/1 854/941/1
f 803/934/1 855/937/1 805/940/1 282/935/1
f 128/835/1 336/64/1 855/937/1 803/934/1
f 336/64/1 24/63/1 313/938/1 855/937/1
f 479/950/1 856/933/1 804/936/1 127/951/1
f 75/59/1 480/836/1 856/933/1 479/950/1
f 480/836/1 128/835/1 803/934/1 856/933/1
f 335/26/1 857/929/1 458/932/1 26/27/1
f 127/951/1 804/936/1 857/929/1 335/26/1
f 804/936/1 282/935/1 802/930/1 857/929/1
f 799/922/1 858/925/1 801/928/1 281/923/1
f 129/823/1 337/68/1 858/925/1 799/922/1
f 337/68/1 34/67/1 482/926/1 858/925/1
f 435/1030/1 859/921/1 800/924/1 83/1031/1
f 3/1032/1 481/824/1 859/921/1 435/1030/1
f 481/824/1 129/823/1 799/922/1 859/921/1
f 291/1033/1 860/917/1 466/920/1 2/1027/1
f 83/1031/1 800/924/1 860/917/1 291/1033/1
f 800/924/1 281/923/1 798/918/1 860/917/1
f 795/910/1 861/913/1 797/916/1 280/911/1
f 131/811/1 339/72/1 861/913/1 795/910/1
f 339/72/1 41/71/1 484/914/1 861/913/1
f 482/926/1 862/909/1 796/912/1 130/927/1
f 34/67/1 483/812/1 862/909/1 482/926/1
f 483/812/1 131/811/1 795/910/1 862/909/1
f 338/34/1 863/905/1 468/908/1 33/35/1
f 130/927/1 796/912/1 863/905/1 338/34/1
f 796/912/1 280/911/1 794/906/1 863/905/1
f 791/898/1 864/901/1 793/904/1 279/899/1
f 133/799/1 341/76/1 864/901/1 791/898/1
f 341/76/1 48/75/1 486/902/1 864/901/1
f 484/914/1 865/897/1 792/900/1 132/915/1
f 41/71/1 485/800/1 865/897/1 484/914/1
f 485/800/1 133/799/1 791/898/1 865/897/1
f 340/38/1 866/893/1 470/896/1 40/39/1
f 132/915/1 792/900/1 866/893/1 340/38/1
f 792/900/1 279/899/1 790/894/1 866/893/1
f 787/886/1 867/889/1 789/892/1 278/887/1
f 135/787/1 343/80/1 867/889/1 787/886/1
f 343/80/1 55/79/1 488/890/1 867/889/1
f 486/902/1 868/885/1 788/888/1 134/903/1
f 48/75/1 487/788/1 868/885/1 486/902/1
f 487/788/1 135/787/1 787/886/1 868/885/1
f 342/42/1 869/881/1 472/884/1 47/43/1
f 134/903/1 788/888/1 869/881/1 342/42/1
f 788/888/1 278/887/1 786/882/1 869/881/1
f 783/874/1 870/877/1 785/880/1 277/875/1
f 137/775/1 345/84/1 870/877/1 783/874/1
f 345/84/1 62/83/1 490/878/1 870/877/1
f 488/890/1 871/873/1 784/876/1 136/891/1
f 55/79/1 489/776/1 871/873/1 488/890/1
f 489/776/1 137/775/1 783/874/1 871/873/1
f 344/46/1 872/869/1 474/872/1 54/47/1
f 136/891/1 784/876/1 872/869/1 344/46/1
f 784/876/1 277/875/1 782/870/1 872/869/1
f 779/862/1 873/865/1 781/868/1 276/863/1
f 139/763/1 347/88/1 873/865/1 779/862/1
f 347/88/1 69/87/1 492/866/1 873/865/1
f 490/878/1 874/861/1 780/864/1 138/879/1
f 62/83/1 491/764/1 874/861/1 490/878/1
f 491/764/1 139/763/1 779/862/1 874/861/1
f 346/50/1 875/857/1 476/860/1 61/51/1
f 138/879/1 780/864/1 875/857/1 346/50/1
f 780/864/1 276/863/1 778/858/1 875/857/1
f 775/850/1 876/853/1 777/856/1 275/851/1
f 141/751/1 349/92/1 876/853/1 775/850/1
f 349/92/1 76/91/1 494/854/1 876/853/1
f 492/866/1 877/849/1 776/852/1 140/867/1
f 69/87/1 493/752/1 877/849/1 492/866/1
f 493/752/1 141/751/1 775/850/1 877/849/1
f 348/54/1 878/845/1 478/848/1 68/55/1
f 140/867/1 776/852/1 878/845/1 348/54/1
f 776/852/1 275/851/1 774/846/1 878/845/1
f 771/838/1 879/841/1 773/844/1 274/839/1
f 143/739/1 351/96/1 879/841/1 771/838/1
f 351/96/1 23/95/1 312/842/1 879/841/1
f 494/854/1 880/837/1 772/840/1 142/855/1
f 76/91/1 495/740/1 880/837/1 494/854/1
f 495/740/1 143/739/1 771/838/1 880/837/1
f 350/58/1 881/833/1 480/836/1 75/59/1
f 142/855/1 772/840/1 881/833/1 350/58/1
f 772/840/1 274/839/1 770/834/1 881/833/1
f 767/826/1 882/829/1 769/832/1 273/827/1
f 144/727/1 352/100/1 882/829/1 767/826/1
f 352/100/1 35/99/1 497/830/1 882/829/1
f 436/1034/1 883/825/1 768/828/1 84/1035/1
f 4/1036/1 496/728/1 883/825/1 436/1034/1
f 496/728/1 144/727/1 767/826/1 883/825/1
f 292/1037/1 884/821/1 481/824/1 3/1032/1
f 84/1035/1 768/828/1 884/821/1 292/1037/1
f 768/828/1 273/827/1 766/822/1 884/821/1
f 763/814/1 885/817/1 765/820/1 272/815/1
f 146/715/1 354/104/1 885/817/1 763/814/1
f 354/104/1 42/103/1 499/818/1 885/817/1
f 497/830/1 886/813/1 764/816/1 145/831/1
f 35/99/1 498/716/1 886/813/1 497/830/1
f 498/716/1 146/715/1 763/814/1 886/813/1
f 353/66/1 887/809/1 483/812/1 34/67/1
f 145/831/1 764/816/1 887/809/1 353/66/1
f 764/816/1 272/815/1 762/810/1 887/809/1
f 759/802/1 888/805/1 761/808/1 271/803/1
f 148/703/1 356/108/1 888/805/1 759/802/1
f 356/108/1 49/107/1 501/806/1 888/805/1
f 499/818/1 889/801/1 760/804/1 147/819/1
f 42/103/1 500/704/1 889/801/1 499/818/1
f 500/704/1 148/703/1 759/802/1 889/801/1
f 355/70/1 890/797/1 485/800/1 41/71/1
f 147/819/1 760/804/1 890/797/1 355/70/1
f 760/804/1 271/803/1 758/798/1 890/797/1
f 755/790/1 891/793/1 757/796/1 270/791/1
f 150/691/1 358/112/1 891/793/1 755/790/1
f 358/112/1 56/111/1 503/794/1 891/793/1
f 501/806/1 892/789/1 756/792/1 149/807/1
f 49/107/1 502/692/1 892/789/1 501/806/1
f 502/692/1 150/691/1 755/790/1 892/789/1
f 357/74/1 893/785/1 487/788/1 48/75/1
f 149/807/1 756/792/1 893/785/1 357/74/1
f 756/792/1 270/791/1 754/786/1 893/785/1
f 751/778/1 894/781/1 753/784/1 269/779/1
f 152/679/1 360/116/1 894/781/1 751/778/1
f 360/116/1 63/115/1 505/782/1 894/781/1
f 503/794/1 895/777/1 752/780/1 151/795/1
f 56/111/1 504/680/1 895/777/1 503/794/1
f 504/680/1 152/679/1 751/778/1 895/777/1
f 359/78/1 896/773/1 489/776/1 55/79/1
f 151/795/1 752/780/1 896/773/1 359/78/1
f 752/780/1 269/779/1 750/774/1 896/773/1
f 747/766/1 897/769/1 749/772/1 268/767/1
f 154/667/1 362/120/1 897/769/1 747/766/1
f 362/120/1 70/119/1 507/770/1 897/769/1
f 505/782/1 898/765/1 748/768/1 153/783/1
f 63/115/1 506/668/1 898/765/1 505/782/1
f 506/668/1 154/667/1 747/766/1 898/765/1
f 361/82/1 899/761/1 491/764/1 62/83/1
f 153/783/1 748/768/1 899/761/1 361/82/1
f 748/768/1 268/767/1 746/762/1 899/761/1
f 743/754/1 900/757/1 745/760/1 267/755/1
f 156/655/1 364/124/1 900/757/1 743/754/1
f 364/124/1 77/123/1 509/758/1 900/757/1
f 507/770/1 901/753/1 744/756/1 155/771/1
f 70/119/1 508/656/1 901/753/1 507/770/1
f 508/656/1 156/655/1 743/754/1 901/753/1
f 363/86/1 902/749/1 493/752/1 69/87/1
f 155/771/1 744/756/1 902/749/1 363/86/1
f 744/756/1 267/755/1 742/750/1 902/749/1
f 739/742/1 903/745/1 741/748/1 266/743/1
f 158/643/1 366/128/1 903/745/1 739/742/1
f 366/128/1 22/127/1 311/746/1 903/745/1
f 509/758/1 904/741/1 740/744/1 157/759/1
f 77/123/1 510/644/1 904/741/1 509/758/1
f 510/644/1 158/643/1 739/742/1 904/741/1
f 365/90/1 905/737/1 495/740/1 76/91/1
f 157/759/1 740/744/1 905/737/1 365/90/1
f 740/744/1 266/743/1 738/738/1 905/737/1
f 735/730/1 906/733/1 737/736/1 265/731/1
f 159/631/1 367/132/1 906/733/1 735/730/1
f 367/132/1 36/131/1 512/734/1 906/733/1
f 437/1038/1 907/729/1 736/732/1 85/1039/1
f 5/1040/1 511/632/1 907/729/1 437/1038/1
f 511/632/1 159/631/1 735/730/1 907/729/1
f 293/1041/1 908/725/1 496/728/1 4/1036/1
f 85/1039/1 736/732/1 908/725/1 293/1041/1
f 736/732/1 265/731/1 734/726/1 908/725/1
f 731/718/1 909/721/1 733/724/1 264/719/1
f 161/619/1 369/136/1 909/721/1 731/718/1
f 369/136/1 43/135/1 514/722/1 909/721/1
f 512/734/1 910/717/1 732/720/1 160/735/1
f 36/131/1 513/620/1 910/717/1 512/734/1
f 513/620/1 161/619/1 731/718/1 910/717/1
f 368/98/1 911/713/1 498/716/1 35/99/1
f 160/735/1 732/720/1 911/713/1 368/98/1
f 732/720/1 264/719/1 730/714/1 911/713/1
f 727/706/1 912/709/1 729/712/1 263/707/1
f 163/607/1 371/140/1 912/709/1 727/706/1
f 371/140/1 50/139/1 516/710/1 912/709/1
f 514/722/1 913/705/1 728/708/1 162/723/1
f 43/135/1 515/608/1 913/705/1 514/722/1
f 515/608/1 163/607/1 727/706/1 913/705/1
f 370/102/1 914/701/1 500/704/1 42/103/1
f 162/723/1 728/708/1 914/701/1 370/102/1
f 728/708/1 263/707/1 726/702/1 914/701/1
f 723/694/1 915/697/1 725/700/1 262/695/1
f 165/595/1 373/144/1 915/697/1 723/694/1
f 373/144/1 57/143/1 518/698/1 915/697/1
f 516/710/1 916/693/1 724/696/1 164/711/1
f 50/139/1 517/596/1 916/693/1 516/710/1
f 517/596/1 165/595/1 723/694/1 916/693/1
f 372/106/1 917/689/1 502/692/1 49/107/1
f 164/711/1 724/696/1 917/689/1 372/106/1
f 724/696/1 262/695/1 722/690/1 917/689/1
f 719/682/1 918/685/1 721/688/1 261/683/1
f 167/583/1 375/148/1 918/685/1 719/682/1
f 375/148/1 64/147/1 520/686/1 918/685/1
f 518/698/1 919/681/1 720/684/1 166/699/1
f 57/143/1 519/584/1 919/681/1 518/698/1
f 519/584/1 167/583/1 719/682/1 919/681/1
f 374/110/1 920/677/1 504/680/1 56/111/1
f 166/699/1 720/684/1 920/677/1 374/110/1
f 720/684/1 261/683/1 718/678/1 920/677/1
f 715/670/1 921/673/1 717/676/1 260/671/1
f 169/571/1 377/152/1 921/673/1 715/670/1
f 377/152/1 71/151/1 522/674/1 921/673/1
f 520/686/1 922/669/1 716/672/1 168/687/1
f 64/147/1 521/572/1 922/669/1 520/686/1
f 521/572/1 169/571/1 715/670/1 922/669/1
f 376/114/1 923/665/1 506/668/1 63/115/1
f 168/687/1 716/672/1 923/665/1 376/114/1
f 716/672/1 260/671/1 714/666/1 923/665/1
f 711/658/1 924/661/1 713/664/1 259/659/1
f 171/559/1 379/156/1 924/661/1 711/658/1
f 379/156/1 78/155/1 524/662/1 924/661/1
f 522/674/1 925/657/1 712/660/1 170/675/1
f 71/151/1 523/560/1 925/657/1 522/674/1
f 523/560/1 171/559/1 711/658/1 925/657/1
f 378/118/1 926/653/1 508/656/1 70/119/1
f 170/675/1 712/660/1 926/653/1 378/118/1
f 712/660/1 259/659/1 710/654/1 926/653/1
f 707/646/1 927/649/1 709/652/1 258/647/1
f 173/547/1 381/160/1 927/649/1 707/646/1
f 381/160/1 21/159/1 310/650/1 927/649/1
f 524/662/1 928/645/1 708/648/1 172/663/1
f 78/155/1 525/548/1 928/645/1 524/662/1
f 525/548/1 173/547/1 707/646/1 928/645/1
f 380/122/1 929/641/1 510/644/1 77/123/1
f 172/663/1 708/648/1 929/641/1 380/122/1
f 708/648/1 258/647/1 706/642/1 929/641/1
f 703/634/1 930/637/1 705/640/1 257/635/1
f 174/535/1 382/164/1 930/637/1 703/634/1
f 382/164/1 37/163/1 527/638/1 930/637/1
f 438/1042/1 931/633/1 704/636/1 86/1043/1
f 6/1044/1 526/536/1 931/633/1 438/1042/1
f 526/536/1 174/535/1 703/634/1 931/633/1
f 294/1045/1 932/629/1 511/632/1 5/1040/1
f 86/1043/1 704/636/1 932/629/1 294/1045/1
f 704/636/1 257/635/1 702/630/1 932/629/1
f 699/622/1 933/625/1 701/628/1 256/623/1
f 176/523/1 384/168/1 933/625/1 699/622/1
f 384/168/1 44/167/1 529/626/1 933/625/1
f 527/638/1 934/621/1 700/624/1 175/639/1
f 37/163/1 528/524/1 934/621/1 527/638/1
f 528/524/1 176/523/1 699/622/1 934/621/1
f 383/130/1 935/617/1 513/620/1 36/131/1
f 175/639/1 700/624/1 935/617/1 383/130/1
f 700/624/1 256/623/1 698/618/1 935/617/1
f 695/610/1 936/613/1 697/616/1 255/611/1
f 178/511/1 386/172/1 936/613/1 695/610/1
f 386/172/1 51/171/1 531/614/1 936/613/1
f 529/626/1 937/609/1 696/612/1 177/627/1
f 44/167/1 530/512/1 937/609/1 529/626/1
f 530/512/1 178/511/1 695/610/1 937/609/1
f 385/134/1 938/605/1 515/608/1 43/135/1
f 177/627/1 696/612/1 938/605/1 385/134/1
f 696/612/1 255/611/1 694/606/1 938/605/1
f 691/598/1 939/601/1 693/604/1 254/599/1
f 180/499/1 388/176/1 939/601/1 691/598/1
f 388/176/1 58/175/1 533/602/1 939/601/1
f 531/614/1 940/597/1 692/600/1 179/615/1
f 51/171/1 532/500/1 940/597/1 531/614/1
f 532/500/1 180/499/1 691/598/1 940/597/1
f 387/138/1 941/593/1 517/596/1 50/139/1
f 179/615/1 692/600/1 941/593/1 387/138/1
f 692/600/1 254/599/1 690/594/1 941/593/1
f 687/586/1 942/589/1 689/592/1 253/587/1
f 182/487/1 390/180/1 942/589/1 687/586/1
f 390/180/1 65/179/1 535/590/1 942/589/1
f 533/602/1 943/585/1 688/588/1 181/603/1
f 58/175/1 534/488/1 943/585/1 533/602/1
f 534/488/1 182/487/1 687/586/1 943/585/1
f 389/142/1 944/581/1 519/584/1 57/143/1
f 181/603/1 688/588/1 944/581/1 389/142/1
f 688/588/1 253/587/1 686/582/1 944/581/1
f 683/574/1 945/577/1 685/580/1 252/575/1
f 184/475/1 392/184/1 945/577/1 683/574/1
f 392/184/1 72/183/1 537/578/1 945/577/1
f 535/590/1 946/573/1 684/576/1 183/591/1
f 65/179/1 536/476/1 946/573/1 535/590/1
f 536/476/1 184/475/1 683/574/1 946/573/1
f 391/146/1 947/569/1 521/572/1 64/147/1
f 183/591/1 684/576/1 947/569/1 391/146/1
f 684/576/1 252/575/1 682/570/1 947/569/1
f 679/562/1 948/565/1 681/568/1 251/563/1
f 186/463/1 394/188/1 948/565/1 679/562/1
f 394/188/1 79/187/1 539/566/1 948/565/1
f 537/578/1 949/561/1 680/564/1 185/579/1
f 72/183/1 538/464/1 949/561/1 537/578/1
f 538/464/1 186/463/1 679/562/1 949/561/1
f 393/150/1 950/557/1 523/560/1 71/151/1
f 185/579/1 680/564/1 950/557/1 393/150/1
f 680/564/1 251/563/1 678/558/1 950/557/1
f 675/550/1 951/553/1 677/556/1 250/551/1
f 188/451/1 396/192/1 951/553/1 675/550/1
f 396/192/1 20/191/1 309/554/1 951/553/1
f 539/566/1 952/549/1 676/552/1 187/567/1
f 79/187/1 540/452/1 952/549/1 539/566/1
f 540/452/1 188/451/1 675/550/1 952/549/1
f 395/154/1 953/545/1 525/548/1 78/155/1
f 187/567/1 676/552/1 953/545/1 395/154/1
f 676/552/1 250/551/1 674/546/1 953/545/1
f 671/538/1 954/541/1 673/544/1 249/539/1
f 189/439/1 397/196/1 954/541/1 671/538/1
f 397/196/1 38/195/1 542/542/1 954/541/1
f 439/1046/1 955/537/1 672/540/1 87/1047/1
f 7/1048/1 541/440/1 955/537/1 439/1046/1
f 541/440/1 189/439/1 671/538/1 955/537/1
f 295/1049/1 956/533/1 526/536/1 6/1044/1
f 87/1047/1 672/540/1 956/533/1 295/1049/1
f 672/540/1 249/539/1 670/534/1 956/533/1
f 667/526/1 957/529/1 669/532/1 248/527/1
f 191/427/1 399/200/1 957/529/1 667/526/1
f 399/200/1 45/199/1 544/530/1 957/529/1
f 542/542/1 958/525/1 668/528/1 190/543/1
f 38/195/1 543/428/1 958/525/1 542/542/1
f 543/428/1 191/427/1 667/526/1 958/525/1
f 398/162/1 959/521/1 528/524/1 37/163/1
f 190/543/1 668/528/1 959/521/1 398/162/1
f 668/528/1 248/527/1 666/522/1 959/521/1
f 663/514/1 960/517/1 665/520/1 247/515/1
f 193/415/1 401/204/1 960/517/1 663/514/1
f 401/204/1 52/203/1 546/518/1 960/517/1
f 544/530/1 961/513/1 664/516/1 192/531/1
f 45/199/1 545/416/1 961/513/1 544/530/1
f 545/416/1 193/415/1 663/514/1 961/513/1
f 400/166/1 962/509/1 530/512/1 44/167/1
f 192/531/1 664/516/1 962/509/1 400/166/1
f 664/516/1 247/515/1 662/510/1 962/509/1
f 659/502/1 963/505/1 661/508/1 246/503/1
f 195/403/1 403/208/1 963/505/1 659/502/1
f 403/208/1 59/207/1 548/506/1 963/505/1
f 546/518/1 964/501/1 660/504/1 194/519/1
f 52/203/1 547/404/1 964/501/1 546/518/1
f 547/404/1 195/403/1 659/502/1 964/501/1
f 402/170/1 965/497/1 532/500/1 51/171/1
f 194/519/1 660/504/1 965/497/1 402/170/1
f 660/504/1 246/503/1 658/498/1 965/497/1
f 655/490/1 966/493/1 657/496/1 245/491/1
f 197/391/1 405/212/1 966/493/1 655/490/1
f 405/212/1 66/211/1 550/494/1 966/493/1
f 548/506/1 967/489/1 656/492/1 196/507/1
f 59/207/1 549/392/1 967/489/1 548/506/1
f 549/392/1 197/391/1 655/490/1 967/489/1
f 404/174/1 968/485/1 534/488/1 58/175/1
f 196/507/1 656/492/1 968/485/1 404/174/1
f 656/492/1 245/491/1 654/486/1 968/485/1
f 651/478/1 969/481/1 653/484/1 244/479/1
f 199/379/1 407/216/1 969/481/1 651/478/1
f 407/216/1 73/215/1 552/482/1 969/481/1
f 550/494/1 970/477/1 652/480/1 198/495/1
f 66/211/1 551/380/1 970/477/1 550/494/1
f 551/380/1 199/379/1 651/478/1 970/477/1
f 406/178/1 971/473/1 536/476/1 65/179/1
f 198/495/1 652/480/1 971/473/1 406/178/1
f 652/480/1 244/479/1 650/474/1 971/473/1
f 647/466/1 972/469/1 649/472/1 243/467/1
f 201/367/1 409/220/1 972/469/1 647/466/1
f 409/220/1 80/219/1 554/470/1 972/469/1
f 552/482/1 973/465/1 648/468/1 200/483/1
f 73/215/1 553/368/1 973/465/1 552/482/1
f 553/368/1 201/367/1 647/466/1 973/465/1
f 408/182/1 974/461/1 538/464/1 72/183/1
f 200/483/1 648/468/1 974/461/1 408/182/1
f 648/468/1 243/467/1 646/462/1 974/461/1
f 643/454/1 975/457/1 645/460/1 242/455/1
f 203/355/1 411/224/1 975/457/1 643/454/1
f 411/224/1 19/223/1 308/458/1 975/457/1
f 554/470/1 976/453/1 644/456/1 202/471/1
f 80/219/1 555/356/1 976/453/1 554/470/1
f 555/356/1 203/355/1 643/454/1 976/453/1
f 410/186/1 977/449/1 540/452/1 79/187/1
f 202/471/1 644/456/1 977/449/1 410/186/1
f 644/456/1 242/455/1 642/450/1 977/449/1
f 639/442/1 978/445/1 641/448/1 241/443/1
f 204/343/1 412/228/1 978/445/1 639/442/1
f 412/228/1 39/227/1 557/446/1 978/445/1
f 440/1050/1 979/441/1 640/444/1 88/1051/1
f 8/1052/1 556/344/1 979/441/1 440/1050/1
f 556/344/1 204/343/1 639/442/1 979/441/1
f 296/1053/1 980/437/1 541/440/1 7/1048/1
f 88/1051/1 640/444/1 980/437/1 296/1053/1
f 640/444/1 241/443/1 638/438/1 980/437/1
f 635/430/1 981/433/1 637/436/1 240/431/1
f 206/331/1 414/232/1 981/433/1 635/430/1
f 414/232/1 46/231/1 559/434/1 981/433/1
f 557/446/1 982/429/1 636/432/1 205/447/1
f 39/227/1 558/332/1 982/429/1 557/446/1
f 558/332/1 206/331/1 635/430/1 982/429/1
f 413/194/1 983/425/1 543/428/1 38/195/1
f 205/447/1 636/432/1 983/425/1 413/194/1
f 636/432/1 240/431/1 634/426/1 983/425/1
f 631/418/1 984/421/1 633/424/1 239/419/1
f 208/319/1 416/236/1 984/421/1 631/418/1
f 416/236/1 53/235/1 561/422/1 984/421/1
f 559/434/1 985/417/1 632/420/1 207/435/1
f 46/231/1 560/320/1 985/417/1 559/434/1
f 560/320/1 208/319/1 631/418/1 985/417/1
f 415/198/1 986/413/1 545/416/1 45/199/1
f 207/435/1 632/420/1 986/413/1 415/198/1
f 632/420/1 239/419/1 630/414/1 986/413/1
f 627/406/1 987/409/1 629/412/1 238/407/1
f 210/307/1 418/240/1 987/409/1 627/406/1
f 418/240/1 60/239/1 563/410/1 987/409/1
f 561/422/1 988/405/1 628/408/1 209/423/1
f 53/235/1 562/308/1 988/405/1 561/422/1
f 562/308/1 210/307/1 627/406/1 988/405/1
f 417/202/1 989/401/1 547/404/1 52/203/1
f 209/423/1 628/408/1 989/401/1 417/202/1
f 628/408/1 238/407/1 626/402/1 989/401/1
f 623/394/1 990/397/1 625/400/1 237/395/1
f 212/295/1 420/244/1 990/397/1 623/394/1
f 420/244/1 67/243/1 565/398/1 990/397/1
f 563/410/1 991/393/1 624/396/1 211/411/1
f 60/239/1 564/296/1 991/393/1 563/410/1
f 564/296/1 212/295/1 623/394/1 991/393/1
f 419/206/1 992/389/1 549/392/1 59/207/1
f 211/411/1 624/396/1 992/389/1 419/206/1
f 624/396/1 237/395/1 622/390/1 992/389/1
f 619/382/1 993/385/1 621/388/1 236/383/1
f 214/283/1 422/248/1 993/385/1 619/382/1
f 422/248/1 74/247/1 567/386/1 993/385/1
f 565/398/1 994/381/1 620/384/1 213/399/1
f 67/243/1 566/284/1 994/381/1 565/398/1
f 566/284/1 214/283/1 619/382/1 994/381/1
f 421/210/1 995/377/1 551/380/1 66/211/1
f 213/399/1 620/384/1 995/377/1 421/210/1
f 620/384/1 236/383/1 618/378/1 995/377/1
f 615/370/1 996/373/1 617/376/1 235/371/1
f 216/271/1 424/252/1 996/373/1 615/370/1
f 424/252/1 81/251/1 569/374/1 996/373/1
f 567/386/1 997/369/1 616/372/1 215/387/1
f 74/247/1 568/272/1 997/369/1 567/386/1
f 568/272/1 216/271/1 615/370/1 997/369/1
f 423/214/1 998/365/1 553/368/1 73/215/1
f 215/387/1 616/372/1 998/365/1 423/214/1
f 616/372/1 235/371/1 614/366/1 998/365/1
f 611/358/1 999/361/1 613/364/1 234/359/1
f 218/259/1 426/256/1 999/361/1 611/358/1
f 426/256/1 18/255/1 307/362/1 999/361/1
f 569/374/1 1000/357/1 612/360/1 217/375/1
f 81/251/1 570/260/1 1000/357/1 569/374/1
f 570/260/1 218/259/1 611/358/1 1000/357/1
f 425/218/1 1001/353/1 555/356/1 80/219/1
f 217/375/1 612/360/1 1001/353/1 425/218/1
f 612/360/1 234/359/1 610/354/1 1001/353/1
f 607/346/1 1002/349/1 609/352/1 233/347/1
f 90/1054/1 442/1055/1 1002/349/1 607/346/1
f 442/1055/1 10/1056/1 571/350/1 1002/349/1
f 441/1057/1 1003/345/1 608/348/1 89/1058/1
f 9/1059/1 298/1060/1 1003/345/1 441/1057/1
f 298/1060/1 90/1054/1 607/346/1 1003/345/1
f 297/1061/1 1004/341/1 556/344/1 8/1052/1
f 89/1058/1 608/348/1 1004/341/1 297/1061/1
f 608/348/1 233/347/1 606/342/1 1004/341/1
f 603/334/1 1005/337/1 605/340/1 232/335/1
f 91/1062/1 443/1063/1 1005/337/1 603/334/1
f 443/1063/1 11/1064/1 572/338/1 1005/337/1
f 571/350/1 1006/333/1 604/336/1 219/351/1
f 10/1056/1 299/1065/1 1006/333/1 571/350/1
f 299/1065/1 91/1062/1 603/334/1 1006/333/1
f 427/226/1 1007/329/1 558/332/1 39/227/1
f 219/351/1 604/336/1 1007/329/1 427/226/1
f 604/336/1 232/335/1 602/330/1 1007/329/1
f 599/322/1 1008/325/1 601/328/1 231/323/1
f 92/1066/1 444/1067/1 1008/325/1 599/322/1
f 444/1067/1 12/1068/1 573/326/1 1008/325/1
f 572/338/1 1009/321/1 600/324/1 220/339/1
f 11/1064/1 300/1069/1 1009/321/1 572/338/1
f 300/1069/1 92/1066/1 599/322/1 1009/321/1
f 428/230/1 1010/317/1 560/320/1 46/231/1
f 220/339/1 600/324/1 1010/317/1 428/230/1
f 600/324/1 231/323/1 598/318/1 1010/317/1
f 595/310/1 1011/313/1 597/316/1 230/311/1
f 93/1070/1 445/1071/1 1011/313/1 595/310/1
f 445/1071/1 13/1072/1 574/314/1 1011/313/1
f 573/326/1 1012/309/1 596/312/1 221/327/1
f 12/1068/1 301/1073/1 1012/309/1 573/326/1
f 301/1073/1 93/1070/1 595/310/1 1012/309/1
f 429/234/1 1013/305/1 562/308/1 53/235/1
f 221/327/1 596/312/1 1013/305/1 429/234/1
f 596/312/1 230/311/1 594/306/1 1013/305/1
f 591/298/1 1014/301/1 593/304/1 229/299/1
f 94/1074/1 446/1075/1 1014/301/1 591/298/1
f 446/1075/1 14/1076/1 575/302/1 1014/301/1
f 574/314/1 1015/297/1 592/300/1 222/315/1
f 13/1072/1 302/1077/1 1015/297/1 574/314/1
f 302/1077/1 94/1074/1 591/298/1 1015/297/1
f 430/238/1 1016/293/1 564/296/1 60/239/1
f 222/315/1 592/300/1 1016/293/1 430/238/1
f 592/300/1 229/299/1 590/294/1 1016/293/1
f 587/286/1 1017/289/1 589/292/1 228/287/1
f 95/1078/1 447/1079/1 1017/289/1 587/286/1
f 447/1079/1 15/1080/1 576/290/1 1017/289/1
f 575/302/1 1018/285/1 588/288/1 223/303/1
f 14/1076/1 303/1081/1 1018/285/1 575/302/1
f 303/1081/1 95/1078/1 587/286/1 1018/285/1
f 431/242/1 1019/281/1 566/284/1 67/243/1
f 223/303/1 588/288/1 1019/281/1 431/242/1
f 588/288/1 228/287/1 586/282/1 1019/281/1
f 583/274/1 1020/277/1 585/280/1 227/275/1
f 96/1082/1 448/1083/1 1020/277/1 583/274/1
f 448/1083/1 16/1084/1 577/278/1 1020/277/1
f 576/290/1 1021/273/1 584/276/1 224/291/1
f 15/1080/1 304/1085/1 1021/273/1 576/290/1
f 304/1085/1 96/1082/1 583/274/1 1021/273/1
f 432/246/1 1022/269/1 568/272/1 74/247/1
f 224/291/1 584/276/1 1022/269/1 432/246/1
f 584/276/1 227/275/1 582/270/1 1022/269/1
f 579/262/1 1023/265/1 581/268/1 226/263/1
f 97/1086/1 449/1087/1 1023/265/1 579/262/1
f 449/1087/1 17/1088/1 306/266/1 1023/265/1
f 577/278/1 1024/261/1 580/264/1 225/279/1
f 16/1084/1 305/1089/1 1024/261/1 577/278/1
f 305/1089/1 97/1086/1 579/262/1 1024/261/1
f 433/250/1 1025/257/1 570/260/1 81/251/1
f 225/279/1 580/264/1 1025/257/1 433/250/1
f 580/264/1 226/263/1 578/258/1 1025/257/1
f 578/258/1 1026/253/1 426/256/1 218/259/1
f 226/263/1 581/268/1 1026/253/1 578/258/1
f 581/268/1 98/267/1 450/254/1 1026/253/1
f 582/270/1 1027/249/1 424/252/1 216/271/1
f 227/275/1 585/280/1 1027/249/1 582/270/1
f 585/280/1 225/279/1 433/250/1 1027/249/1
f 586/282/1 1028/245/1 422/248/1 214/283/1
f 228/287/1 589/292/1 1028/245/1 586/282/1
f 589/292/1 224/291/1 432/246/1 1028/245/1
f 590/294/1 1029/241/1 420/244/1 212/295/1
f 229/299/1 593/304/1 1029/241/1 590/294/1
f 593/304/1 223/303/1 431/242/1 1029/241/1
f 594/306/1 1030/237/1 418/240/1 210/307/1
f 230/311/1 597/316/1 1030/237/1 594/306/1
f 597/316/1 222/315/1 430/238/1 1030/237/1
f 598/318/1 1031/233/1 416/236/1 208/319/1
f 231/323/1 601/328/1 1031/233/1 598/318/1
f 601/328/1 221/327/1 429/234/1 1031/233/1
f 602/330/1 1032/229/1 414/232/1 206/331/1
f 232/335/1 605/340/1 1032/229/1 602/330/1
f 605/340/1 220/339/1 428/230/1 1032/229/1
f 606/342/1 1033/225/1 412/228/1 204/343/1
f 233/347/1 609/352/1 1033/225/1 606/342/1
f 609/352/1 219/351/1 427/226/1 1033/225/1
f 610/354/1 1034/221/1 411/224/1 203/355/1
f 234/359/1 613/364/1 1034/221/1 610/354/1
f 613/364/1 99/363/1 451/222/1 1034/221/1
f 614/366/1 1035/217/1 409/220/1 201/367/1
f 235/371/1 617/376/1 1035/217/1 614/366/1
f 617/376/1 217/375/1 425/218/1 1035/217/1
f 618/378/1 1036/213/1 407/216/1 199/379/1
f 236/383/1 621/388/1 1036/213/1 618/378/1
f 621/388/1 215/387/1 423/214/1 1036/213/1
f 622/390/1 1037/209/1 405/212/1 197/391/1
f 237/395/1 625/400/1 1037/209/1 622/390/1
f 625/400/1 213/399/1 421/210/1 1037/209/1
f 626/402/1 1038/205/1 403/208/1 195/403/1
f 238/407/1 629/412/1 1038/205/1 626/402/1
f 629/412/1 211/411/1 419/206/1 1038/205/1
f 630/414/1 1039/201/1 401/204/1 193/415/1
f 239/419/1 633/424/1 1039/201/1 630/414/1
f 633/424/1 209/423/1 417/202/1 1039/201/1
f 634/426/1 1040/197/1 399/200/1 191/427/1
f 240/431/1 637/436/1 1040/197/1 634/426/1
f 637/436/1 207/435/1 415/198/1 1040/197/1
f 638/438/1 1041/193/1 397/196/1 189/439/1
f 241/443/1 641/448/1 1041/193/1 638/438/1
f 641/448/1 205/447/1 413/194/1 1041/193/1
f 642/450/1 1042/189/1 396/192/1 188/451/1
f 242/455/1 645/460/1 1042/189/1 642/450/1
f 645/460/1 100/459/1 452/190/1 1042/189/1
f 646/462/1 1043/185/1 394/188/1 186/463/1
f 243/467/1 649/472/1 1043/185/1 646/462/1
f 649/472/1 202/471/1 410/186/1 1043/185/1
f 650/474/1 1044/181/1 392/184/1 184/475/1
f 244/479/1 653/484/1 1044/181/1 650/474/1
f 653/484/1 200/483/1 408/182/1 1044/181/1
f 654/486/1 1045/177/1 390/180/1 182/487/1
f 245/491/1 657/496/1 1045/177/1 654/486/1
f 657/496/1 198/495/1 406/178/1 1045/177/1
f 658/498/1 1046/173/1 388/176/1 180/499/1
f 246/503/1 661/508/1 1046/173/1 658/498/1
f 661/508/1 196/507/1 404/174/1 1046/173/1
f 662/510/1 1047/169/1 386/172/1 178/511/1
f 247/515/1 665/520/1 1047/169/1 662/510/1
f 665/520/1 194/519/1 402/170/1 1047/169/1
f 666/522/1 1048/165/1 384/168/1 176/523/1
f 248/527/1 669/532/1 1048/165/1 666/522/1
f 669/532/1 192/531/1 400/166/1 1048/165/1
f 670/534/1 1049/161/1 382/164/1 174/535/1
f 249/539/1 673/544/1 1049/161/1 670/534/1
f 673/544/1 190/543/1 398/162/1 1049/161/1
f 674/546/1 1050/157/1 381/160/1 173/547/1
f 250/551/1 677/556/1 1050/157/1 674/546/1
f 677/556/1 101/555/1 453/158/1 1050/157/1
f 678/558/1 1051/153/1 379/156/1 171/559/1
f 251/563/1 681/568/1 1051/153/1 678/558/1
f 681/568/1 187/567/1 395/154/1 1051/153/1
f 682/570/1 1052/149/1 377/152/1 169/571/1
f 252/575/1 685/580/1 1052/149/1 682/570/1
f 685/580/1 185/579/1 393/150/1 1052/149/1
f 686/582/1 1053/145/1 375/148/1 167/583/1
f 253/587/1 689/592/1 1053/145/1 686/582/1
f 689/592/1 183/591/1 391/146/1 1053/145/1
f 690/594/1 1054/141/1 373/144/1 165/595/1
f 254/599/1 693/604/1 1054/141/1 690/594/1
f 693/604/1 181/603/1 389/142/1 1054/141/1
f 694/606/1 1055/137/1 371/140/1 163/607/1
f 255/611/1 697/616/1 1055/137/1 694/606/1
f 697/616/1 179/615/1 387/138/1 1055/137/1
f 698/618/1 1056/133/1 369/136/1 161/619/1
f 256/623/1 701/628/1 1056/133/1 698/618/1
f 701/628/1 177/627/1 385/134/1 1056/133/1
f 702/630/1 1057/129/1 367/132/1 159/631/1
f 257/635/1 705/640/1 1057/129/1 702/630/1
f 705/640/1 175/639/1 383/130/1 1057/129/1
f 706/642/1 1058/125/1 366/128/1 158/643/1
f 258/647/1 709/652/1 1058/125/1 706/642/1
f 709/652/1 102/651/1 454/126/1 1058/125/1
f 710/654/1 1059/121/1 364/124/1 156/655/1
f 259/659/1 713/664/1 1059/121/1 710/654/1
f 713/664/1 172/663/1 380/122/1 1059/121/1
f 714/666/1 1060/117/1 362/120/1 154/667/1
f 260/671/1 717/676/1 1060/117/1 714/666/1
f 717/676/1 170/675/1 378/118/1 1060/117/1
f 718/678/1 1061/113/1 360/116/1 152/679/1
f 261/683/1 721/688/1 1061/113/1 718/678/1
f 721/688/1 168/687/1 376/114/1 1061/113/1
f 722/690/1 1062/109/1 358/112/1 150/691/1
f 262/695/1 725/700/1 1062/109/1 722/690/1
f 725/700/1 166/699/1 374/110/1 1062/109/1
f 726/702/1 1063/105/1 356/108/1 148/703/1
f 263/707/1 729/712/1 1063/105/1 726/702/1
f 729/712/1 164/711/1 372/106/1 1063/105/1
f 730/714/1 1064/101/1 354/104/1 146/715/1
f 264/719/1 733/724/1 1064/101/1 730/714/1
f 733/724/1 162/723/1 370/102/1 1064/101/1
f 734/726/1 1065/97/1 352/100/1 144/727/1
f 265/731/1 737/736/1 1065/97/1 734/726/1
f 737/736/1 160/735/1 368/98/1 1065/97/1
f 738/738/1 1066/93/1 351/96/1 143/739/1
f 266/743/1 741/748/1 1066/93/1 738/738/1
f 741/748/1 103/747/1 455/94/1 1066/93/1
f 742/750/1 1067/89/1 349/92/1 141/751/1
f 267/755/1 745/760/1 1067/89/1 742/750/1
f 745/760/1 157/759/1 365/90/1 1067/89/1
f 746/762/1 1068/85/1 347/88/1 139/763/1
f 268/767/1 749/772/1 1068/85/1 746/762/1
f 749/772/1 155/771/1 363/86/1 1068/85/1
f 750/774/1 1069/81/1 345/84/1 137/775/1
f 269/779/1 753/784/1 1069/81/1 750/774/1
f 753/784/1 153/783/1 361/82/1 1069/81/1
f 754/786/1 1070/77/1 343/80/1 135/787/1
f 270/791/1 757/796/1 1070/77/1 754/786/1
f 757/796/1 151/795/1 359/78/1 1070/77/1
f 758/798/1 1071/73/1 341/76/1 133/799/1
f 271/803/1 761/808/1 1071/73/1 758/798/1
f 761/808/1 149/807/1 357/74/1 1071/73/1
f 762/810/1 1072/69/1 339/72/1 131/811/1
f 272/815/1 765/820/1 1072/69/1 762/810/1
f 765/820/1 147/819/1 355/70/1 1072/69/1
f 766/822/1 1073/65/1 337/68/1 129/823/1
f 273/827/1 769/832/1 1073/65/1 766/822/1
f 769/832/1 145/831/1 353/66/1 1073/65/1
f 770/834/1 1074/61/1 336/64/1 128/835/1
f 274/839/1 773/844/1 1074/61/1 770/834/1
f 773/844/1 104/843/1 456/62/1 1074/61/1
f 774/846/1 1075/57/1 334/60/1 126/847/1
f 275/851/1 777/856/1 1075/57/1 774/846/1
f 777/856/1 142/855/1 350/58/1 1075/57/1
f 778/858/1 1076/53/1 332/56/1 124/859/1
f 276/863/1 781/868/1 1076/53/1 778/858/1
f 781/868/1 140/867/1 348/54/1 1076/53/1
f 782/870/1 1077/49/1 330/52/1 122/871/1
f 277/875/1 785/880/1 1077/49/1 782/870/1
f 785/880/1 138/879/1 346/50/1 1077/49/1
f 786/882/1 1078/45/1 328/48/1 120/883/1
f 278/887/1 789/892/1 1078/45/1 786/882/1
f 789/892/1 136/891/1 344/46/1 1078/45/1
f 790/894/1 1079/41/1 326/44/1 118/895/1
f 279/899/1 793/904/1 1079/41/1 790/894/1
f 793/904/1 134/903/1 342/42/1 1079/41/1
f 794/906/1 1080/37/1 324/40/1 116/907/1
f 280/911/1 797/916/1 1080/37/1 794/906/1
f 797/916/1 132/915/1 340/38/1 1080/37/1
f 798/918/1 1081/33/1 322/36/1 114/919/1
f 281/923/1 801/928/1 1081/33/1 798/918/1
f 801/928/1 130/927/1 338/34/1 1081/33/1
f 802/930/1 1082/29/1 314/32/1 106/931/1
f 282/935/1 805/940/1 1082/29/1 802/930/1
f 805/940/1 105/939/1 457/30/1 1082/29/1
f 806/942/1 1083/25/1 315/28/1 107/943/1
f 283/947/1 809/952/1 1083/25/1 806/942/1
f 809/952/1 127/951/1 335/26/1 1083/25/1
f 810/954/1 1084/21/1 316/24/1 108/955/1
f 284/959/1 813/964/1 1084/21/1 810/954/1
f 813/964/1 125/963/1 333/22/1 1084/21/1
f 814/966/1 1085/17/1 317/20/1 109/967/1
f 285/971/1 817/976/1 1085/17/1 814/966/1
f 817/976/1 123/975/1 331/18/1 1085/17/1
f 818/978/1 1086/13/1 318/16/1 110/979/1
f 286/983/1 821/988/1 1086/13/1 818/978/1
f 821/988/1 121/987/1 329/14/1 1086/13/1
f 822/990/1 1087/9/1 319/12/1 111/991/1
f 287/995/1 825/1000/1 1087/9/1 822/990/1
f 825/1000/1 119/999/1 327/10/1 1087/9/1
f 826/1002/1 1088/5/1 320/8/1 112/1003/1
f 288/1007/1 829/1012/1 1088/5/1 826/1002/1
f 829/1012/1 117/1011/1 325/6/1 1088/5/1
f 830/1014/1 1089/1/1 321/4/1 113/1015/1
f 289/1019/1 833/1024/1 1089/1/1 830/1014/1
f 833/1024/1 115/1023/1 323/2/1 1089/1/1
