# Blender 5.1.2
# www.blender.org
mtllib circle.mtl
o Plane
v -0.583608 0.000000 0.583608
v 0.583608 0.000000 0.583608
v -0.583608 0.000000 -0.583608
v 0.583608 0.000000 -0.583608
v -0.825347 0.000000 0.000000
v 0.000000 0.000000 0.825347
v 0.825347 0.000000 0.000000
v 0.000000 0.000000 -0.825347
v 0.000000 0.000000 0.000000
vn -0.0000 1.0000 -0.0000
vt 0.500000 0.500000
vt 1.000000 0.500000
vt 1.000000 1.000000
vt 0.500000 1.000000
vt 0.000000 0.500000
vt 0.000000 1.000000
vt 0.000000 0.000000
vt 0.500000 0.000000
vt 1.000000 0.000000
s 0
f 9/1/1 7/2/1 4/3/1 8/4/1
f 5/5/1 9/1/1 8/4/1 3/6/1
f 1/7/1 6/8/1 9/1/1 5/5/1
f 6/8/1 2/9/1 7/2/1 9/1/1
