# Blender 5.2.0 LTS
# www.blender.org
mtllib pyramid.mtl
o Cube
v 0.000000 0.693807 0.000000
v 0.693807 -0.693807 -0.693807
v 0.693807 -0.693807 0.693807
v -0.693807 -0.693807 -0.693807
v -0.693807 -0.693807 0.693807
vn -0.0000 0.4472 0.8944
vn -0.8944 0.4472 -0.0000
vn -0.0000 -1.0000 -0.0000
vn 0.8944 0.4472 -0.0000
vn -0.0000 0.4472 -0.8944
vt 1.000000 0.000000
vt 0.500000 1.000000
vt 0.000000 0.000000
vt 1.000000 1.000000
vt 0.000000 1.000000
vt 0.500000 1.000000
s 0
usemtl Material
f 3/1/1 1/2/1 5/3/1
f 5/1/2 1/2/2 4/3/2
f 4/3/3 2/1/3 3/4/3 5/5/3
f 2/1/4 1/2/4 3/3/4
f 4/1/5 1/6/5 2/3/5
